<?xml version="1.0" encoding="utf-8"?>
<svg width="900px" height="177px" viewBox="248.462 0 766.107 136.7" version="1.1" xmlns="http://www.w3.org/2000/svg">
  <g id="bricks_byggefond" stroke="none" stroke-width="1" fill="none" fill-rule="evenodd" transform="matrix(1, 0, 0, 1, 26.096561, 13.9835)">
    <g id="icon" transform="matrix(1, 0, 0, 1, 545.858826, -9.630347)">
      <g>
        <g id="Blue-brick" mask="url(#mask-2)" fill="#304060">
          <g transform="translate(52.928932, 31.000000)" id="Rectangle">
            <rect x="0" y="0" width="50" height="30" rx="3"/>
          </g>
        </g>
        <g id="Blue-brick" mask="url(#mask-2)" fill="#304060">
          <g transform="translate(35.000000, -4.000000)" id="Rectangle">
            <rect x="0" y="0" width="50" height="30" rx="3"/>
          </g>
        </g>
        <g id="Blue-brick" mask="url(#mask-2)" fill="#304060">
          <g transform="translate(90.000000, -4.000000)" id="Rectangle">
            <rect x="0" y="0" width="50" height="30" rx="3"/>
          </g>
        </g>
        <g id="Blue-brick" mask="url(#mask-2)" fill="#304060">
          <g transform="translate(107.928932, 31.000000)" id="Rectangle">
            <rect x="0" y="0" width="50" height="30" rx="3"/>
          </g>
        </g>
        <g id="Blue-brick" mask="url(#mask-2)" fill="#304060">
          <g transform="translate(90.000000, 66.000000)" id="Rectangle">
            <rect x="0" y="0" width="50" height="30" rx="3"/>
          </g>
        </g>
        <g id="Blue-brick" mask="url(#mask-2)" fill="#304060">
          <g transform="translate(62.000000, 101.000000)" id="Rectangle">
            <rect x="0" y="0" width="50" height="30" rx="3"/>
          </g>
        </g>
        <g id="Creditcard" mask="url(#mask-2)">
          <g transform="translate(-2.071068, 31.000000)">
            <g>
              <rect id="Rectangle" fill="#60AAFB" x="0" y="0" width="50" height="30" rx="3"/>
              <rect id="Rectangle-2" fill="#356597" x="0" y="4" width="50" height="5"/>
              <rect id="Rectangle-3" fill="#BCDCFD" x="5" y="15" width="14" height="7"/>
              <rect id="Rectangle-3" fill="#BCDCFD" x="25" y="15" width="18" height="3"/>
              <rect id="Rectangle-3" fill="#BCDCFD" x="25" y="19" width="9" height="3"/>
            </g>
          </g>
        </g>
        <g id="Creditcard" mask="url(#mask-2)">
          <g transform="translate(-20.000000, -4.000000)">
            <g>
              <rect id="Rectangle" fill="#60AAFB" x="0" y="0" width="50" height="30" rx="3"/>
              <rect id="Rectangle-2" fill="#356597" x="0" y="4" width="50" height="5"/>
              <rect id="Rectangle-3" fill="#BCDCFD" x="5" y="15" width="14" height="7"/>
              <rect id="Rectangle-3" fill="#BCDCFD" x="25" y="15" width="18" height="3"/>
              <rect id="Rectangle-3" fill="#BCDCFD" x="25" y="19" width="9" height="3"/>
            </g>
          </g>
        </g>
        <g id="Creditcard" mask="url(#mask-2)">
          <g transform="translate(-20.000000, 66.000000)">
            <g>
              <rect id="Rectangle" fill="#60AAFB" x="0" y="0" width="50" height="30" rx="3"/>
              <rect id="Rectangle-2" fill="#356597" x="0" y="4" width="50" height="5"/>
              <rect id="Rectangle-3" fill="#BCDCFD" x="5" y="15" width="14" height="7"/>
              <rect id="Rectangle-3" fill="#BCDCFD" x="25" y="15" width="18" height="3"/>
              <rect id="Rectangle-3" fill="#BCDCFD" x="25" y="19" width="9" height="3"/>
            </g>
          </g>
        </g>
        <g id="Creditcard" mask="url(#mask-2)">
          <g transform="translate(35.000000, 66.000000)">
            <g>
              <rect id="Rectangle" fill="#60AAFB" x="0" y="0" width="50" height="30" rx="3"/>
              <rect id="Rectangle-2" fill="#356597" x="0" y="4" width="50" height="5"/>
              <rect id="Rectangle-3" fill="#BCDCFD" x="5" y="15" width="14" height="7"/>
              <rect id="Rectangle-3" fill="#BCDCFD" x="25" y="15" width="18" height="3"/>
              <rect id="Rectangle-3" fill="#BCDCFD" x="25" y="19" width="9" height="3"/>
            </g>
          </g>
        </g>
        <g id="Creditcard" mask="url(#mask-2)">
          <g transform="translate(7.000000, 101.000000)">
            <g>
              <rect id="Rectangle" fill="#60AAFB" x="0" y="0" width="50" height="30" rx="3"/>
              <rect id="Rectangle-2" fill="#356597" x="0" y="4" width="50" height="5"/>
              <rect id="Rectangle-3" fill="#BCDCFD" x="5" y="15" width="14" height="7"/>
              <rect id="Rectangle-3" fill="#BCDCFD" x="25" y="15" width="18" height="3"/>
              <rect id="Rectangle-3" fill="#BCDCFD" x="25" y="19" width="9" height="3"/>
            </g>
          </g>
        </g>
      </g>
    </g>
    <g id="g-1" transform="matrix(1, 0, 0, 1, 541.312561, 5.047544)">
      <g transform="matrix(1, 0, 0, 1, -105.325172, -14.560693)">
        <g id="g-2" mask="url(#mask-2)" fill="#304060">
          <g transform="translate(52.928932, 31.000000)" id="g-3">
            <rect x="0" y="0" width="50" height="30" rx="3"/>
          </g>
        </g>
        <g id="g-2" mask="url(#mask-2)" fill="#304060">
          <g transform="translate(35.000000, -4.000000)" id="g-3">
            <rect x="0" y="0" width="50" height="30" rx="3"/>
          </g>
        </g>
        <g id="g-2" mask="url(#mask-2)" fill="#304060">
          <g transform="translate(90.000000, -4.000000)" id="g-3">
            <rect x="0" y="0" width="50" height="30" rx="3"/>
          </g>
        </g>
        <g id="g-2" mask="url(#mask-2)" fill="#304060">
          <g transform="translate(107.928932, 31.000000)" id="g-3">
            <rect x="0" y="0" width="50" height="30" rx="3"/>
          </g>
        </g>
        <g id="g-2" mask="url(#mask-2)" fill="#304060">
          <g transform="translate(90.000000, 66.000000)" id="g-3">
            <rect x="0" y="0" width="50" height="30" rx="3"/>
          </g>
        </g>
        <g id="g-2" mask="url(#mask-2)" fill="#304060">
          <g transform="translate(62.000000, 101.000000)" id="g-3">
            <rect x="0" y="0" width="50" height="30" rx="3"/>
          </g>
        </g>
        <g id="g-4" mask="url(#mask-2)">
          <g transform="translate(-2.071068, 31.000000)">
            <g>
              <rect id="g-3" fill="#60AAFB" x="0" y="0" width="50" height="30" rx="3"/>
              <rect id="rect-1" fill="#356597" x="0" y="4" width="50" height="5"/>
              <rect id="rect-2" fill="#BCDCFD" x="5" y="15" width="14" height="7"/>
              <rect id="rect-2" fill="#BCDCFD" x="25" y="15" width="18" height="3"/>
              <rect id="rect-2" fill="#BCDCFD" x="25" y="19" width="9" height="3"/>
            </g>
          </g>
        </g>
        <g id="g-4" mask="url(#mask-2)">
          <g transform="translate(-20.000000, -4.000000)">
            <g>
              <rect id="g-3" fill="#60AAFB" x="0" y="0" width="50" height="30" rx="3"/>
              <rect id="rect-1" fill="#356597" x="0" y="4" width="50" height="5"/>
              <rect id="rect-2" fill="#BCDCFD" x="5" y="15" width="14" height="7"/>
              <rect id="rect-2" fill="#BCDCFD" x="25" y="15" width="18" height="3"/>
              <rect id="rect-2" fill="#BCDCFD" x="25" y="19" width="9" height="3"/>
            </g>
          </g>
        </g>
        <g id="g-4" mask="url(#mask-2)">
          <g transform="translate(-20.000000, 66.000000)">
            <g>
              <rect id="g-3" fill="#60AAFB" x="0" y="0" width="50" height="30" rx="3"/>
              <rect id="rect-1" fill="#356597" x="0" y="4" width="50" height="5"/>
              <rect id="rect-2" fill="#BCDCFD" x="5" y="15" width="14" height="7"/>
              <rect id="rect-2" fill="#BCDCFD" x="25" y="15" width="18" height="3"/>
              <rect id="rect-2" fill="#BCDCFD" x="25" y="19" width="9" height="3"/>
            </g>
          </g>
        </g>
        <g id="g-4" mask="url(#mask-2)">
          <g transform="translate(35.000000, 66.000000)">
            <g>
              <rect id="g-3" fill="#60AAFB" x="0" y="0" width="50" height="30" rx="3"/>
              <rect id="rect-1" fill="#356597" x="0" y="4" width="50" height="5"/>
              <rect id="rect-2" fill="#BCDCFD" x="5" y="15" width="14" height="7"/>
              <rect id="rect-2" fill="#BCDCFD" x="25" y="15" width="18" height="3"/>
              <rect id="rect-2" fill="#BCDCFD" x="25" y="19" width="9" height="3"/>
            </g>
          </g>
        </g>
        <g id="g-4" mask="url(#mask-2)">
          <g transform="translate(7.000000, 101.000000)">
            <g>
              <rect id="g-3" fill="#60AAFB" x="0" y="0" width="50" height="30" rx="3"/>
              <rect id="rect-1" fill="#356597" x="0" y="4" width="50" height="5"/>
              <rect id="rect-2" fill="#BCDCFD" x="5" y="15" width="14" height="7"/>
              <rect id="rect-2" fill="#BCDCFD" x="25" y="15" width="18" height="3"/>
              <rect id="rect-2" fill="#BCDCFD" x="25" y="19" width="9" height="3"/>
            </g>
          </g>
        </g>
      </g>
    </g>
    <g id="g-5" transform="matrix(1, 0, 0, 1, 765.911926, -9.666986)">
      <g>
        <g id="g-6" mask="url(#mask-2)" fill="#304060">
          <g transform="translate(52.928932, 31.000000)" id="g-7">
            <rect x="0" y="0" width="50" height="30" rx="3"/>
          </g>
        </g>
        <g id="g-6" mask="url(#mask-2)" fill="#304060">
          <g transform="translate(35.000000, -4.000000)" id="g-7">
            <rect x="0" y="0" width="50" height="30" rx="3"/>
          </g>
        </g>
        <g id="g-6" mask="url(#mask-2)" fill="#304060">
          <g transform="translate(90.000000, -4.000000)" id="g-7">
            <rect x="0" y="0" width="50" height="30" rx="3"/>
          </g>
        </g>
        <g id="g-6" mask="url(#mask-2)" fill="#304060">
          <g transform="translate(107.928932, 31.000000)" id="g-7">
            <rect x="0" y="0" width="50" height="30" rx="3"/>
          </g>
        </g>
        <g id="g-6" mask="url(#mask-2)" fill="#304060">
          <g transform="translate(90.000000, 66.000000)" id="g-7">
            <rect x="0" y="0" width="50" height="30" rx="3"/>
          </g>
        </g>
        <g id="g-6" mask="url(#mask-2)" fill="#304060">
          <g transform="translate(62.000000, 101.000000)" id="g-7">
            <rect x="0" y="0" width="50" height="30" rx="3"/>
          </g>
        </g>
        <g id="g-8" mask="url(#mask-2)">
          <g transform="translate(-2.071068, 31.000000)">
            <g>
              <rect id="g-7" fill="#60AAFB" x="0" y="0" width="50" height="30" rx="3"/>
              <rect id="rect-3" fill="#356597" x="0" y="4" width="50" height="5"/>
              <rect id="rect-4" fill="#BCDCFD" x="5" y="15" width="14" height="7"/>
              <rect id="rect-4" fill="#BCDCFD" x="25" y="15" width="18" height="3"/>
              <rect id="rect-4" fill="#BCDCFD" x="25" y="19" width="9" height="3"/>
            </g>
          </g>
        </g>
        <g id="g-8" mask="url(#mask-2)">
          <g transform="translate(-20.000000, -4.000000)">
            <g>
              <rect id="g-7" fill="#60AAFB" x="0" y="0" width="50" height="30" rx="3"/>
              <rect id="rect-3" fill="#356597" x="0" y="4" width="50" height="5"/>
              <rect id="rect-4" fill="#BCDCFD" x="5" y="15" width="14" height="7"/>
              <rect id="rect-4" fill="#BCDCFD" x="25" y="15" width="18" height="3"/>
              <rect id="rect-4" fill="#BCDCFD" x="25" y="19" width="9" height="3"/>
            </g>
          </g>
        </g>
        <g id="g-8" mask="url(#mask-2)">
          <g transform="translate(-20.000000, 66.000000)">
            <g>
              <rect id="g-7" fill="#60AAFB" x="0" y="0" width="50" height="30" rx="3"/>
              <rect id="rect-3" fill="#356597" x="0" y="4" width="50" height="5"/>
              <rect id="rect-4" fill="#BCDCFD" x="5" y="15" width="14" height="7"/>
              <rect id="rect-4" fill="#BCDCFD" x="25" y="15" width="18" height="3"/>
              <rect id="rect-4" fill="#BCDCFD" x="25" y="19" width="9" height="3"/>
            </g>
          </g>
        </g>
        <g id="g-8" mask="url(#mask-2)">
          <g transform="translate(35.000000, 66.000000)">
            <g>
              <rect id="g-7" fill="#60AAFB" x="0" y="0" width="50" height="30" rx="3"/>
              <rect id="rect-3" fill="#356597" x="0" y="4" width="50" height="5"/>
              <rect id="rect-4" fill="#BCDCFD" x="5" y="15" width="14" height="7"/>
              <rect id="rect-4" fill="#BCDCFD" x="25" y="15" width="18" height="3"/>
              <rect id="rect-4" fill="#BCDCFD" x="25" y="19" width="9" height="3"/>
            </g>
          </g>
        </g>
        <g id="g-8" mask="url(#mask-2)">
          <g transform="translate(7.000000, 101.000000)">
            <g>
              <rect id="g-7" fill="#60AAFB" x="0" y="0" width="50" height="30" rx="3"/>
              <rect id="rect-3" fill="#356597" x="0" y="4" width="50" height="5"/>
              <rect id="rect-4" fill="#BCDCFD" x="5" y="15" width="14" height="7"/>
              <rect id="rect-4" fill="#BCDCFD" x="25" y="15" width="18" height="3"/>
              <rect id="rect-4" fill="#BCDCFD" x="25" y="19" width="9" height="3"/>
            </g>
          </g>
        </g>
      </g>
    </g>
    <g id="g-9" transform="matrix(1, 0, 0, 1, 761.149963, 4.904719)">
      <g transform="matrix(1, 0, 0, 1, -105.325172, -14.560693)">
        <g id="g-10" mask="url(#mask-2)" fill="#304060">
          <g transform="translate(52.928932, 31.000000)" id="g-11">
            <rect x="0" y="0" width="50" height="30" rx="3"/>
          </g>
        </g>
        <g id="g-10" mask="url(#mask-2)" fill="#304060">
          <g transform="translate(35.000000, -4.000000)" id="g-11">
            <rect x="0" y="0" width="50" height="30" rx="3"/>
          </g>
        </g>
        <g id="g-10" mask="url(#mask-2)" fill="#304060">
          <g transform="translate(90.000000, -4.000000)" id="g-11">
            <rect x="0" y="0" width="50" height="30" rx="3"/>
          </g>
        </g>
        <g id="g-10" mask="url(#mask-2)" fill="#304060">
          <g transform="translate(107.928932, 31.000000)" id="g-11">
            <rect x="0" y="0" width="50" height="30" rx="3"/>
          </g>
        </g>
        <g id="g-10" mask="url(#mask-2)" fill="#304060">
          <g transform="translate(90.000000, 66.000000)" id="g-11">
            <rect x="0" y="0" width="50" height="30" rx="3"/>
          </g>
        </g>
        <g id="g-10" mask="url(#mask-2)" fill="#304060">
          <g transform="translate(62.000000, 101.000000)" id="g-11">
            <rect x="0" y="0" width="50" height="30" rx="3"/>
          </g>
        </g>
        <g id="g-12" mask="url(#mask-2)">
          <g transform="translate(-2.071068, 31.000000)">
            <g>
              <rect id="g-11" fill="#60AAFB" x="0" y="0" width="50" height="30" rx="3"/>
              <rect id="rect-5" fill="#356597" x="0" y="4" width="50" height="5"/>
              <rect id="rect-6" fill="#BCDCFD" x="5" y="15" width="14" height="7"/>
              <rect id="rect-6" fill="#BCDCFD" x="25" y="15" width="18" height="3"/>
              <rect id="rect-6" fill="#BCDCFD" x="25" y="19" width="9" height="3"/>
            </g>
          </g>
        </g>
        <g id="g-12" mask="url(#mask-2)">
          <g transform="translate(-20.000000, -4.000000)">
            <g>
              <rect id="g-11" fill="#60AAFB" x="0" y="0" width="50" height="30" rx="3"/>
              <rect id="rect-5" fill="#356597" x="0" y="4" width="50" height="5"/>
              <rect id="rect-6" fill="#BCDCFD" x="5" y="15" width="14" height="7"/>
              <rect id="rect-6" fill="#BCDCFD" x="25" y="15" width="18" height="3"/>
              <rect id="rect-6" fill="#BCDCFD" x="25" y="19" width="9" height="3"/>
            </g>
          </g>
        </g>
        <g id="g-12" mask="url(#mask-2)">
          <g transform="translate(-20.000000, 66.000000)">
            <g>
              <rect id="g-11" fill="#60AAFB" x="0" y="0" width="50" height="30" rx="3"/>
              <rect id="rect-5" fill="#356597" x="0" y="4" width="50" height="5"/>
              <rect id="rect-6" fill="#BCDCFD" x="5" y="15" width="14" height="7"/>
              <rect id="rect-6" fill="#BCDCFD" x="25" y="15" width="18" height="3"/>
              <rect id="rect-6" fill="#BCDCFD" x="25" y="19" width="9" height="3"/>
            </g>
          </g>
        </g>
        <g id="g-12" mask="url(#mask-2)">
          <g transform="translate(35.000000, 66.000000)">
            <g>
              <rect id="g-11" fill="#60AAFB" x="0" y="0" width="50" height="30" rx="3"/>
              <rect id="rect-5" fill="#356597" x="0" y="4" width="50" height="5"/>
              <rect id="rect-6" fill="#BCDCFD" x="5" y="15" width="14" height="7"/>
              <rect id="rect-6" fill="#BCDCFD" x="25" y="15" width="18" height="3"/>
              <rect id="rect-6" fill="#BCDCFD" x="25" y="19" width="9" height="3"/>
            </g>
          </g>
        </g>
        <g id="g-12" mask="url(#mask-2)">
          <g transform="translate(7.000000, 101.000000)">
            <g>
              <rect id="g-11" fill="#60AAFB" x="0" y="0" width="50" height="30" rx="3"/>
              <rect id="rect-5" fill="#356597" x="0" y="4" width="50" height="5"/>
              <rect id="rect-6" fill="#BCDCFD" x="5" y="15" width="14" height="7"/>
              <rect id="rect-6" fill="#BCDCFD" x="25" y="15" width="18" height="3"/>
              <rect id="rect-6" fill="#BCDCFD" x="25" y="19" width="9" height="3"/>
            </g>
          </g>
        </g>
      </g>
    </g>
    <g id="g-13" transform="matrix(1, 0, 0, 1, 325.955597, -9.626507)">
      <g>
        <g id="g-14" mask="url(#mask-2)" fill="#304060">
          <g transform="translate(52.928932, 31.000000)" id="g-15">
            <rect x="0" y="0" width="50" height="30" rx="3"/>
          </g>
        </g>
        <g id="g-14" mask="url(#mask-2)" fill="#304060">
          <g transform="translate(35.000000, -4.000000)" id="g-15">
            <rect x="0" y="0" width="50" height="30" rx="3"/>
          </g>
        </g>
        <g id="g-14" mask="url(#mask-2)" fill="#304060">
          <g transform="translate(90.000000, -4.000000)" id="g-15">
            <rect x="0" y="0" width="50" height="30" rx="3"/>
          </g>
        </g>
        <g id="g-14" mask="url(#mask-2)" fill="#304060">
          <g transform="translate(107.928932, 31.000000)" id="g-15">
            <rect x="0" y="0" width="50" height="30" rx="3"/>
          </g>
        </g>
        <g id="g-14" mask="url(#mask-2)" fill="#304060">
          <g transform="translate(90.000000, 66.000000)" id="g-15">
            <rect x="0" y="0" width="50" height="30" rx="3"/>
          </g>
        </g>
        <g id="g-14" mask="url(#mask-2)" fill="#304060">
          <g transform="translate(62.000000, 101.000000)" id="g-15">
            <rect x="0" y="0" width="50" height="30" rx="3"/>
          </g>
        </g>
        <g id="g-16" mask="url(#mask-2)">
          <g transform="translate(-2.071068, 31.000000)">
            <g>
              <rect id="g-15" fill="#60AAFB" x="0" y="0" width="50" height="30" rx="3"/>
              <rect id="rect-7" fill="#356597" x="0" y="4" width="50" height="5"/>
              <rect id="rect-8" fill="#BCDCFD" x="5" y="15" width="14" height="7"/>
              <rect id="rect-8" fill="#BCDCFD" x="25" y="15" width="18" height="3"/>
              <rect id="rect-8" fill="#BCDCFD" x="25" y="19" width="9" height="3"/>
            </g>
          </g>
        </g>
        <g id="g-16" mask="url(#mask-2)">
          <g transform="translate(-20.000000, -4.000000)">
            <g>
              <rect id="g-15" fill="#60AAFB" x="0" y="0" width="50" height="30" rx="3"/>
              <rect id="rect-7" fill="#356597" x="0" y="4" width="50" height="5"/>
              <rect id="rect-8" fill="#BCDCFD" x="5" y="15" width="14" height="7"/>
              <rect id="rect-8" fill="#BCDCFD" x="25" y="15" width="18" height="3"/>
              <rect id="rect-8" fill="#BCDCFD" x="25" y="19" width="9" height="3"/>
            </g>
          </g>
        </g>
        <g id="g-16" mask="url(#mask-2)">
          <g transform="translate(-20.000000, 66.000000)">
            <g>
              <rect id="g-15" fill="#60AAFB" x="0" y="0" width="50" height="30" rx="3"/>
              <rect id="rect-7" fill="#356597" x="0" y="4" width="50" height="5"/>
              <rect id="rect-8" fill="#BCDCFD" x="5" y="15" width="14" height="7"/>
              <rect id="rect-8" fill="#BCDCFD" x="25" y="15" width="18" height="3"/>
              <rect id="rect-8" fill="#BCDCFD" x="25" y="19" width="9" height="3"/>
            </g>
          </g>
        </g>
        <g id="g-16" mask="url(#mask-2)">
          <g transform="translate(35.000000, 66.000000)">
            <g>
              <rect id="g-15" fill="#60AAFB" x="0" y="0" width="50" height="30" rx="3"/>
              <rect id="rect-7" fill="#356597" x="0" y="4" width="50" height="5"/>
              <rect id="rect-8" fill="#BCDCFD" x="5" y="15" width="14" height="7"/>
              <rect id="rect-8" fill="#BCDCFD" x="25" y="15" width="18" height="3"/>
              <rect id="rect-8" fill="#BCDCFD" x="25" y="19" width="9" height="3"/>
            </g>
          </g>
        </g>
        <g id="g-16" mask="url(#mask-2)">
          <g transform="translate(7.000000, 101.000000)">
            <g>
              <rect id="g-15" fill="#60AAFB" x="0" y="0" width="50" height="30" rx="3"/>
              <rect id="rect-7" fill="#356597" x="0" y="4" width="50" height="5"/>
              <rect id="rect-8" fill="#BCDCFD" x="5" y="15" width="14" height="7"/>
              <rect id="rect-8" fill="#BCDCFD" x="25" y="15" width="18" height="3"/>
              <rect id="rect-8" fill="#BCDCFD" x="25" y="19" width="9" height="3"/>
            </g>
          </g>
        </g>
      </g>
    </g>
    <g id="g-17" transform="matrix(1, 0, 0, 1, 875.91449, -9.650405)">
      <g>
        <g id="g-18" mask="url(#mask-2)" fill="#304060">
          <g transform="translate(52.928932, 31.000000)" id="g-19">
            <rect x="0" y="0" width="50" height="30" rx="3"/>
          </g>
        </g>
        <g id="g-18" mask="url(#mask-2)" fill="#304060">
          <g transform="translate(35.000000, -4.000000)" id="g-19">
            <rect x="0" y="0" width="50" height="30" rx="3"/>
          </g>
        </g>
        <g id="g-18" mask="url(#mask-2)" fill="#304060">
          <g transform="translate(90.000000, -4.000000)" id="g-19">
            <rect x="0" y="0" width="50" height="30" rx="3"/>
          </g>
        </g>
        <g id="g-18" mask="url(#mask-2)" fill="#304060">
          <g transform="translate(107.928932, 31.000000)" id="g-19">
            <rect x="0" y="0" width="50" height="30" rx="3"/>
            <rect x="-183.028" y="34.786" width="50" height="30" rx="3"/>
          </g>
        </g>
        <g id="g-18" mask="url(#mask-2)" fill="#304060">
          <g transform="translate(90.000000, 66.000000)" id="g-19">
            <rect x="0" y="0" width="50" height="30" rx="3"/>
          </g>
        </g>
        <g id="g-18" mask="url(#mask-2)" fill="#304060">
          <g transform="translate(62.000000, 101.000000)" id="g-19">
            <rect x="0" y="0" width="50" height="30" rx="3"/>
          </g>
        </g>
        <g id="g-20" mask="url(#mask-2)">
          <g transform="translate(-2.071068, 31.000000)">
            <g>
              <rect id="g-19" fill="#60AAFB" x="0" y="0" width="50" height="30" rx="3"/>
              <rect id="rect-9" fill="#356597" x="0" y="4" width="50" height="5"/>
              <rect id="rect-10" fill="#BCDCFD" x="5" y="15" width="14" height="7"/>
              <rect id="rect-10" fill="#BCDCFD" x="25" y="15" width="18" height="3"/>
              <rect id="rect-10" fill="#BCDCFD" x="25" y="19" width="9" height="3"/>
            </g>
          </g>
        </g>
        <g id="g-20" mask="url(#mask-2)">
          <g transform="translate(-20.000000, -4.000000)">
            <g>
              <rect id="g-19" fill="#60AAFB" x="0" y="0" width="50" height="30" rx="3"/>
              <rect id="rect-9" fill="#356597" x="0" y="4" width="50" height="5"/>
              <rect id="rect-10" fill="#BCDCFD" x="5" y="15" width="14" height="7"/>
              <rect id="rect-10" fill="#BCDCFD" x="25" y="15" width="18" height="3"/>
              <rect id="rect-10" fill="#BCDCFD" x="25" y="19" width="9" height="3"/>
            </g>
          </g>
        </g>
        <g id="g-20" mask="url(#mask-2)">
          <g transform="translate(-20.000000, 66.000000)">
            <g>
              <rect id="g-19" fill="#60AAFB" x="0" y="0" width="50" height="30" rx="3"/>
              <rect id="rect-9" fill="#356597" x="0" y="4" width="50" height="5"/>
              <rect id="rect-10" fill="#BCDCFD" x="5" y="15" width="14" height="7"/>
              <rect id="rect-10" fill="#BCDCFD" x="25" y="15" width="18" height="3"/>
              <rect id="rect-10" fill="#BCDCFD" x="25" y="19" width="9" height="3"/>
            </g>
          </g>
        </g>
        <g id="g-20" mask="url(#mask-2)">
          <g transform="translate(35.000000, 66.000000)">
            <g>
              <rect id="g-19" fill="#60AAFB" x="0" y="0" width="50" height="30" rx="3"/>
              <rect id="rect-9" fill="#356597" x="0" y="4" width="50" height="5"/>
              <rect id="rect-10" fill="#BCDCFD" x="5" y="15" width="14" height="7"/>
              <rect id="rect-10" fill="#BCDCFD" x="25" y="15" width="18" height="3"/>
              <rect id="rect-10" fill="#BCDCFD" x="25" y="19" width="9" height="3"/>
            </g>
          </g>
        </g>
        <g id="g-20" mask="url(#mask-2)">
          <g transform="translate(7.000000, 101.000000)">
            <g>
              <rect id="g-19" fill="#60AAFB" x="0" y="0" width="50" height="30" rx="3"/>
              <rect id="rect-9" fill="#356597" x="0" y="4" width="50" height="5"/>
              <rect id="rect-10" fill="#BCDCFD" x="5" y="15" width="14" height="7"/>
              <rect id="rect-10" fill="#BCDCFD" x="25" y="15" width="18" height="3"/>
              <rect id="rect-10" fill="#BCDCFD" x="25" y="19" width="9" height="3"/>
            </g>
          </g>
        </g>
      </g>
    </g>
    <g id="g-25" transform="matrix(1, 0, 0, 1, 216.009415, -9.561821)">
      <g>
        <g id="g-26" mask="url(#mask-2)" fill="#304060">
          <g transform="translate(52.928932, 31.000000)" id="g-27">
            <rect x="0" y="0" width="50" height="30" rx="3"/>
          </g>
        </g>
        <g id="g-26" mask="url(#mask-2)" fill="#304060">
          <g transform="translate(35.000000, -4.000000)" id="g-27">
            <rect x="0" y="0" width="50" height="30" rx="3"/>
          </g>
        </g>
        <g id="g-26" mask="url(#mask-2)" fill="#304060">
          <g transform="translate(90.000000, -4.000000)" id="g-27">
            <rect x="0" y="0" width="50" height="30" rx="3"/>
          </g>
        </g>
        <g id="g-26" mask="url(#mask-2)" fill="#304060">
          <g transform="translate(107.928932, 31.000000)" id="g-27">
            <rect x="0" y="0" width="50" height="30" rx="3"/>
          </g>
        </g>
        <g id="g-26" mask="url(#mask-2)" fill="#304060">
          <g transform="translate(90.000000, 66.000000)" id="g-27">
            <rect x="0" y="0" width="50" height="30" rx="3"/>
          </g>
        </g>
        <g id="g-26" mask="url(#mask-2)" fill="#304060">
          <g transform="translate(62.000000, 101.000000)" id="g-27">
            <rect x="0" y="0" width="50" height="30" rx="3"/>
          </g>
        </g>
        <g id="g-28" mask="url(#mask-2)">
          <g transform="translate(-2.071068, 31.000000)">
            <g>
              <rect id="g-27" fill="#60AAFB" x="0" y="0" width="50" height="30" rx="3"/>
              <rect id="rect-13" fill="#356597" x="0" y="4" width="50" height="5"/>
              <rect id="rect-14" fill="#BCDCFD" x="5" y="15" width="14" height="7"/>
              <rect id="rect-14" fill="#BCDCFD" x="25" y="15" width="18" height="3"/>
              <rect id="rect-14" fill="#BCDCFD" x="25" y="19" width="9" height="3"/>
            </g>
          </g>
        </g>
        <g id="g-28" mask="url(#mask-2)">
          <g transform="translate(-20.000000, -4.000000)">
            <g>
              <rect id="g-27" fill="#60AAFB" x="0" y="0" width="50" height="30" rx="3"/>
              <rect id="rect-13" fill="#356597" x="0" y="4" width="50" height="5"/>
              <rect id="rect-14" fill="#BCDCFD" x="5" y="15" width="14" height="7"/>
              <rect id="rect-14" fill="#BCDCFD" x="25" y="15" width="18" height="3"/>
              <rect id="rect-14" fill="#BCDCFD" x="25" y="19" width="9" height="3"/>
            </g>
          </g>
        </g>
        <g id="g-28" mask="url(#mask-2)">
          <g transform="translate(-20.000000, 66.000000)">
            <g>
              <rect id="g-27" fill="#60AAFB" x="0" y="0" width="50" height="30" rx="3"/>
              <rect id="rect-13" fill="#356597" x="0" y="4" width="50" height="5"/>
              <rect id="rect-14" fill="#BCDCFD" x="5" y="15" width="14" height="7"/>
              <rect id="rect-14" fill="#BCDCFD" x="25" y="15" width="18" height="3"/>
              <rect id="rect-14" fill="#BCDCFD" x="25" y="19" width="9" height="3"/>
            </g>
          </g>
        </g>
        <g id="g-28" mask="url(#mask-2)">
          <g transform="translate(35.000000, 66.000000)">
            <g>
              <rect id="g-27" fill="#60AAFB" x="0" y="0" width="50" height="30" rx="3"/>
              <rect id="rect-13" fill="#356597" x="0" y="4" width="50" height="5"/>
              <rect id="rect-14" fill="#BCDCFD" x="5" y="15" width="14" height="7"/>
              <rect id="rect-14" fill="#BCDCFD" x="25" y="15" width="18" height="3"/>
              <rect id="rect-14" fill="#BCDCFD" x="25" y="19" width="9" height="3"/>
            </g>
          </g>
        </g>
        <g id="g-28" mask="url(#mask-2)">
          <g transform="translate(7.000000, 101.000000)">
            <g>
              <rect id="g-27" fill="#60AAFB" x="0" y="0" width="50" height="30" rx="3"/>
              <rect id="rect-13" fill="#356597" x="0" y="4" width="50" height="5"/>
              <rect id="rect-14" fill="#BCDCFD" x="5" y="15" width="14" height="7"/>
              <rect id="rect-14" fill="#BCDCFD" x="25" y="15" width="18" height="3"/>
              <rect id="rect-14" fill="#BCDCFD" x="25" y="19" width="9" height="3"/>
            </g>
          </g>
        </g>
      </g>
    </g>
  </g>
</svg>