<svg id="Calque_1" data-name="Calque 1" xmlns="http://www.w3.org/2000/svg" viewBox="0 0 1896.42 283.23"><defs><style>.cls-1{fill:none;}.cls-2,.cls-6{fill:#304060;}.cls-3{fill:#6ca4d9;}.cls-4{fill:#366698;}.cls-5{fill:#bedbf4;}.cls-6{stroke:#304060;stroke-miterlimit:10;stroke-width:4px;}</style></defs><title>FundBrickslogos</title><path class="cls-1" d="M137.1,166.26l31.1-31.1a2.46,2.46,0,0,1,1.7-.8c-0.3-2.3-.7-4.6-1.2-6.8L153.3,143a2.9,2.9,0,0,1-4.2,0l-17-17a2.9,2.9,0,0,1,0-4.2l22.1-22.1c-1.1-1.2-2.3-2.4-3.5-3.6l-9.4,9.4a2.9,2.9,0,0,1-4.2,0l-17-17a2.9,2.9,0,0,1,0-4.2l3.3-3.3a56,56,0,0,0-5.9-1.2l-13.6,13.6a2.9,2.9,0,0,1-4.2,0L88.4,82.26c-1.7.6-3.5,1.2-5.1,1.9L96.1,97a2.9,2.9,0,0,1,0,4.2L65,132.36a2.9,2.9,0,0,1-4.2,0l-11.7-11.7c-0.6,1.8-1.2,3.6-1.7,5.4l9.8,9.8a2.9,2.9,0,0,1,0,4.2l-11,11a56,56,0,0,0,1.2,5.9l26-26a2.9,2.9,0,0,1,4.2,0l4.2,4.2,12.7,12.7a2.9,2.9,0,0,1,0,4.2l-31.1,31.1a3.92,3.92,0,0,1-1.4.8c1.2,1.3,2.5,2.6,3.8,3.8l19.5-19.5a2.9,2.9,0,0,1,4.2,0l0.7,0.7,3.5,3.5,12.7,12.7a2.9,2.9,0,0,1,0,4.2l-12.8,12.8c2,0.5,4,.8,6,1.1l29.5-29.5a2.9,2.9,0,0,1,4.2,0l4.2,4.2,10.7,10.7c1.3-1.1,2.5-2.2,3.7-3.4l-15.1-15.1C135.9,169.36,135.9,167.46,137.1,166.26Zm-55.9-38.8a2.9,2.9,0,0,1,0-4.2l31.1-31.1a2.9,2.9,0,0,1,4.2,0l17,17a2.9,2.9,0,0,1,0,4.2l-31.1,31.1a2.9,2.9,0,0,1-4.2,0Zm33.3,54.4a2.9,2.9,0,0,1-4.2,0l-12.7-12.7-3.5-3.5-0.7-.7a2.9,2.9,0,0,1,0-4.2l31.1-31.1a2.9,2.9,0,0,1,4.2,0l17,17a2.9,2.9,0,0,1,0,4.2Z"/><path class="cls-2" d="M102.4,144.46l31.1-31.1a2.9,2.9,0,0,0,0-4.2l-17-17a2.9,2.9,0,0,0-4.2,0l-31.1,31.1a2.9,2.9,0,0,0,0,4.2l17,17A3.08,3.08,0,0,0,102.4,144.46Z"/><path class="cls-2" d="M65,132.36l31.1-31.1a2.9,2.9,0,0,0,0-4.2L83.3,84.16a62.46,62.46,0,0,0-34.2,36.5l11.7,11.7A2.9,2.9,0,0,0,65,132.36Z"/><path class="cls-2" d="M103.9,93.46l13.6-13.6a59.87,59.87,0,0,0-9.5-.7,62.7,62.7,0,0,0-19.5,3.1l11.2,11.2A2.9,2.9,0,0,0,103.9,93.46Z"/><path class="cls-2" d="M120.1,88.56l17,17a2.9,2.9,0,0,0,4.2,0l9.4-9.4a63.65,63.65,0,0,0-27.4-15.1l-3.3,3.3A3,3,0,0,0,120.1,88.56Z"/><path class="cls-2" d="M132.1,126l17,17a2.9,2.9,0,0,0,4.2,0l15.4-15.4a61.53,61.53,0,0,0-14.6-27.9L132,121.76A3.19,3.19,0,0,0,132.1,126Z"/><path class="cls-2" d="M169.9,134.36a3.81,3.81,0,0,0-1.7.8l-31.1,31.1a2.9,2.9,0,0,0,0,4.2l15.1,15.1a62.48,62.48,0,0,0,18.2-44A58.07,58.07,0,0,0,169.9,134.36Z"/><path class="cls-3" d="M78.4,131.66l3.5,3.5L77.7,131a2.9,2.9,0,0,0-4.2,0l-26,26c0.4,1.5.8,2.9,1.3,4.4Z"/><path class="cls-3" d="M94.6,152.16a2.9,2.9,0,0,0,0-4.2l-12.7-12.7-31.3,31.3a60.84,60.84,0,0,0,11.5,17.6,2.85,2.85,0,0,0,1.4-.8Zm-21.2,9.9L71.3,160l6.4-6.4,2.1,2.1Zm7.8-17.6,2.1,2.1-12.7,12.7-2.1-2.1Zm-26.9,26.8,9.9-9.9,4.9,4.9-9.9,9.9Z"/><path class="cls-4" d="M48.7,161.36a53.76,53.76,0,0,0,2,5.1L82,135.16l-3.5-3.5Z"/><rect class="cls-5" x="54.73" y="165.38" width="14" height="7" transform="translate(-101.34 93.12) rotate(-45)"/><rect class="cls-5" x="66.9" y="150.35" width="18" height="3" transform="translate(-85.14 98.14) rotate(-45)"/><rect class="cls-5" x="71" y="156.39" width="9" height="3" transform="translate(-89.53 99.63) rotate(-45)"/><path class="cls-3" d="M57.2,135.86l-9.8-9.8a56.66,56.66,0,0,0-1.5,8.4h0a55.29,55.29,0,0,0-.4,7.1,59.87,59.87,0,0,0,.7,9.5l11-11A2.9,2.9,0,0,0,57.2,135.86Z"/><path class="cls-3" d="M106.7,185.36L94,172.66l-20.8,20.8a63,63,0,0,0,20.7,9l12.8-12.8A3,3,0,0,0,106.7,185.36Zm-21.2,14.2-2.1-2.1,6.4-6.4,2.1,2.1Zm-2.8-2.9-2.1-2.1,12.7-12.7,2.1,2.1Z"/><path class="cls-3" d="M90.4,169.16l-0.7-.7a2.9,2.9,0,0,0-4.2,0L66,187.86a38.76,38.76,0,0,0,3.1,2.6Z"/><path class="cls-4" d="M73.1,193.46L94,172.66l-3.5-3.5-21.4,21.4C70.4,191.56,71.7,192.56,73.1,193.46Z"/><rect class="cls-5" x="78.97" y="187.74" width="18" height="3" transform="translate(-108.04 117.63) rotate(-45)"/><rect class="cls-5" x="83.08" y="193.77" width="9" height="3" transform="translate(-112.43 119.12) rotate(-45)"/><path class="cls-3" d="M145.6,146.46l-17-17a2.9,2.9,0,0,0-4.2,0l-31.1,31.1a2.9,2.9,0,0,0,0,4.2l0.7,0.7,35.4-35.4,3.5,3.5L97.5,169l12.7,12.7a2.9,2.9,0,0,0,4.2,0l31.1-31.1A2.71,2.71,0,0,0,145.6,146.46Zm-35.4,28.3-4.9-4.9,9.9-9.9,4.9,4.9Zm14.2-14.1-2.1-2.1,6.4-6.4,2.1,2.1Zm-2.9-2.8-2.1-2.1,12.7-12.7,2.1,2.1Z"/><rect class="cls-4" x="88.38" y="147.18" width="50" height="5" transform="translate(-72.63 124.01) rotate(-45)"/><rect class="cls-5" x="105.7" y="163.86" width="14" height="7" transform="translate(-85.34 128.71) rotate(-45)"/><rect class="cls-5" x="117.79" y="148.9" width="18" height="3" transform="translate(-69.22 133.71) rotate(-45)"/><rect class="cls-5" x="121.97" y="154.87" width="9" height="3" transform="translate(-73.53 135.22) rotate(-45)"/><path class="cls-3" d="M112.2,204a59.75,59.75,0,0,0,13.4-2.4l-1.3-1.3,12.7-12.7,2.1,2.1L128,200.76c0.7-.3,1.5-0.5,2.2-0.8l3.2-3.2,1.3,1.3a63.24,63.24,0,0,0,13.7-8.9l-10.7-10.7Z"/><path class="cls-3" d="M134.3,174.76l3.5,3.5-4.2-4.2a2.9,2.9,0,0,0-4.2,0l-29.5,29.5c1.7,0.2,3.4.4,5.2,0.5Z"/><path class="cls-4" d="M105.1,204c1,0,1.9.1,2.9,0.1,1.4,0,2.9-.1,4.3-0.2l25.6-25.6-3.5-3.5Z"/><path class="cls-5" d="M139.2,189.66l-2.1-2.1-12.7,12.7,1.3,1.3a24.13,24.13,0,0,0,2.5-.8Z"/><path class="cls-5" d="M133.6,196.66l-3.2,3.2c1.5-.6,3-1.2,4.5-1.9Z"/><path class="cls-6" d="M206.55,182.56V101.72h51v15.38H224.78v18.72h28v15.38h-28v31.37H206.55Z"/><path class="cls-6" d="M286.15,184.05q-10,0-14.57-6.57t-4.53-18.23V121.06h18.23V156.9q0,6.7,1.86,9.18t5.83,2.48a10.08,10.08,0,0,0,5.83-1.61,23.47,23.47,0,0,0,5.08-5.21V121.06h18.23v61.5H307.23L305.87,174H305.5a33.32,33.32,0,0,1-8.49,7.38A21,21,0,0,1,286.15,184.05Z"/><path class="cls-6" d="M338.11,182.56v-61.5H353l1.24,7.81h0.5a49.58,49.58,0,0,1,8.68-6.51,21.26,21.26,0,0,1,11-2.79q10,0,14.57,6.57t4.53,18.23v38.19H375.31V146.73q0-6.7-1.8-9.18t-5.77-2.48a11,11,0,0,0-6,1.55,34.94,34.94,0,0,0-5.46,4.4v41.54H338.11Z"/><path class="cls-6" d="M431,184.05a23.61,23.61,0,0,1-10.35-2.23,22.32,22.32,0,0,1-7.94-6.39,30.1,30.1,0,0,1-5.08-10.11,46.71,46.71,0,0,1-1.8-13.52A39.28,39.28,0,0,1,408,138.3a32.69,32.69,0,0,1,5.7-10.11,24.75,24.75,0,0,1,8.18-6.39,21.71,21.71,0,0,1,9.49-2.23,18.53,18.53,0,0,1,8.56,1.74,30.4,30.4,0,0,1,6.57,4.71l-0.74-9.42v-21H464v86.92H449.09l-1.24-6.08h-0.5a28.8,28.8,0,0,1-7.56,5.39A19.52,19.52,0,0,1,431,184.05Zm4.71-14.88a11.64,11.64,0,0,0,5.39-1.24,13.66,13.66,0,0,0,4.65-4.34V138.42a14.55,14.55,0,0,0-5.08-3.1,16.07,16.07,0,0,0-5.08-.87q-4.34,0-7.69,4.15t-3.35,13q0,9.18,2.91,13.39A9.44,9.44,0,0,0,435.7,169.17Z"/><path class="cls-6" d="M512.33,184.05a18.55,18.55,0,0,1-8.25-2,26,26,0,0,1-7.75-6h-0.5l-1.49,6.57H480.09V95.64h18.23V117l-0.5,9.42a28.61,28.61,0,0,1,7.75-5,21.21,21.21,0,0,1,8.49-1.8,21.7,21.7,0,0,1,17.67,8.49,28.6,28.6,0,0,1,4.84,9.8,46,46,0,0,1,1.67,12.83,42.69,42.69,0,0,1-2.17,14.14,32.42,32.42,0,0,1-5.83,10.48,25.35,25.35,0,0,1-8.31,6.51A22,22,0,0,1,512.33,184.05Zm-4.22-14.88a10,10,0,0,0,8.06-4.28q3.35-4.28,3.35-13.83,0-16.61-10.66-16.62-5.46,0-10.54,5.58V165.2a14.83,14.83,0,0,0,5,3.1A14.57,14.57,0,0,0,508.11,169.17Z"/><path class="cls-6" d="M551.14,182.56v-61.5H566l1.24,10.79h0.5a23.79,23.79,0,0,1,8.06-9.3,17.52,17.52,0,0,1,9.42-3,24.27,24.27,0,0,1,4.28.31,13.12,13.12,0,0,1,3,.93l-3,15.75a30.27,30.27,0,0,0-3.22-.74,21.42,21.42,0,0,0-3.47-.25,13.29,13.29,0,0,0-7.25,2.48q-3.78,2.48-6.26,8.8v35.71H551.14Z"/><path class="cls-6" d="M609.54,112a10.91,10.91,0,0,1-7.56-2.67,8.82,8.82,0,0,1-3-6.88,8.63,8.63,0,0,1,3-6.82,12.38,12.38,0,0,1,15.19,0,8.72,8.72,0,0,1,2.91,6.82,8.91,8.91,0,0,1-2.91,6.88A10.85,10.85,0,0,1,609.54,112Zm-9.05,70.56v-61.5h18.23v61.5H600.49Z"/><path class="cls-6" d="M661.5,184.05a32.43,32.43,0,0,1-12-2.17,27.81,27.81,0,0,1-9.61-6.26,29,29,0,0,1-6.45-10.11,37.32,37.32,0,0,1-2.36-13.7,34.18,34.18,0,0,1,2.6-13.7,29.67,29.67,0,0,1,7-10.11A30.45,30.45,0,0,1,651,121.74a34.58,34.58,0,0,1,12.15-2.17,25.77,25.77,0,0,1,10.11,1.86,31.89,31.89,0,0,1,7.87,4.71l-8.56,11.78q-4.34-3.6-8.31-3.6A12.87,12.87,0,0,0,653.69,139q-3.85,4.71-3.84,12.77t3.91,12.77a12.26,12.26,0,0,0,9.86,4.71,13.49,13.49,0,0,0,5.77-1.3,29.74,29.74,0,0,0,5.27-3.16l7.19,11.9a27.85,27.85,0,0,1-9.92,5.64A34.7,34.7,0,0,1,661.5,184.05Z"/><path class="cls-6" d="M692.62,182.56V95.64h17.73v49.85h0.5l19.47-24.43h19.84l-21.58,25.3,23.19,36.21H732.05l-13.89-23.93-7.81,8.8v15.13H692.62Z"/><path class="cls-6" d="M778.68,184.05a35.9,35.9,0,0,1-12.46-2.36,38.37,38.37,0,0,1-11.1-6.2l8.18-11.41a37,37,0,0,0,8.06,4.84,20,20,0,0,0,7.81,1.61q4.09,0,6-1.36a4.49,4.49,0,0,0,1.86-3.84,3.9,3.9,0,0,0-1.05-2.67,10.85,10.85,0,0,0-2.85-2.17,28.48,28.48,0,0,0-4-1.8q-2.23-.8-4.59-1.8a57.81,57.81,0,0,1-5.7-2.6,24,24,0,0,1-5.21-3.66,17.89,17.89,0,0,1-3.84-5.08,14.66,14.66,0,0,1-1.49-6.76,18.29,18.29,0,0,1,1.67-7.81,16.72,16.72,0,0,1,4.77-6.08A23.57,23.57,0,0,1,772.1,121a30.91,30.91,0,0,1,9.67-1.43,29.78,29.78,0,0,1,12.4,2.42,49.64,49.64,0,0,1,9.3,5.39l-8.18,10.91a32.36,32.36,0,0,0-6.57-3.84,16.46,16.46,0,0,0-6.45-1.36q-6.95,0-6.94,4.84a3.57,3.57,0,0,0,1,2.54,9.82,9.82,0,0,0,2.67,1.92,34.29,34.29,0,0,0,3.84,1.67l4.53,1.67q3,1.12,5.89,2.54a24.48,24.48,0,0,1,5.33,3.53,15.65,15.65,0,0,1,5.39,12.4,18.89,18.89,0,0,1-1.61,7.81,17.18,17.18,0,0,1-4.84,6.26,24.12,24.12,0,0,1-7.94,4.22A35,35,0,0,1,778.68,184.05Z"/><path class="cls-6" d="M831.5,182.56l25.3-80.85h21.95L904,182.56H884.69l-5-19.22H855.06l-5,19.22H831.5Zm29.26-40.92-2,7.44H876l-1.86-7.44q-1.74-6.07-3.35-12.9t-3.22-13.14h-0.5q-1.49,6.45-3,13.21T860.76,141.64Z"/><path class="cls-6" d="M931.19,184.05a35.9,35.9,0,0,1-12.46-2.36,38.37,38.37,0,0,1-11.1-6.2l8.18-11.41a37,37,0,0,0,8.06,4.84,20,20,0,0,0,7.81,1.61q4.09,0,6-1.36a4.49,4.49,0,0,0,1.86-3.84,3.9,3.9,0,0,0-1.05-2.67,10.85,10.85,0,0,0-2.85-2.17,28.48,28.48,0,0,0-4-1.8q-2.23-.8-4.59-1.8a57.81,57.81,0,0,1-5.7-2.6,24,24,0,0,1-5.21-3.66,17.89,17.89,0,0,1-3.84-5.08,14.66,14.66,0,0,1-1.49-6.76,18.29,18.29,0,0,1,1.67-7.81,16.72,16.72,0,0,1,4.77-6.08,23.57,23.57,0,0,1,7.44-3.91,30.91,30.91,0,0,1,9.67-1.43,29.78,29.78,0,0,1,12.4,2.42,49.64,49.64,0,0,1,9.3,5.39l-8.18,10.91a32.36,32.36,0,0,0-6.57-3.84,16.46,16.46,0,0,0-6.45-1.36q-6.95,0-6.94,4.84a3.57,3.57,0,0,0,1,2.54,9.82,9.82,0,0,0,2.67,1.92,34.29,34.29,0,0,0,3.84,1.67l4.53,1.67q3,1.12,5.89,2.54a24.48,24.48,0,0,1,5.33,3.53,15.65,15.65,0,0,1,5.39,12.4,18.89,18.89,0,0,1-1.61,7.81,17.18,17.18,0,0,1-4.84,6.26,24.12,24.12,0,0,1-7.94,4.22A35,35,0,0,1,931.19,184.05Z"/><path class="cls-6" d="M986.13,184.05a35.9,35.9,0,0,1-12.46-2.36,38.37,38.37,0,0,1-11.1-6.2l8.18-11.41a37,37,0,0,0,8.06,4.84,20,20,0,0,0,7.81,1.61q4.09,0,6-1.36a4.49,4.49,0,0,0,1.86-3.84,3.9,3.9,0,0,0-1.05-2.67,10.85,10.85,0,0,0-2.85-2.17,28.48,28.48,0,0,0-4-1.8q-2.23-.8-4.59-1.8a57.81,57.81,0,0,1-5.7-2.6,24,24,0,0,1-5.21-3.66,17.89,17.89,0,0,1-3.84-5.08,14.66,14.66,0,0,1-1.49-6.76,18.29,18.29,0,0,1,1.67-7.81,16.72,16.72,0,0,1,4.77-6.08,23.57,23.57,0,0,1,7.44-3.91,30.91,30.91,0,0,1,9.67-1.43,29.78,29.78,0,0,1,12.4,2.42,49.64,49.64,0,0,1,9.3,5.39l-8.18,10.91a32.36,32.36,0,0,0-6.57-3.84,16.46,16.46,0,0,0-6.45-1.36q-6.95,0-6.94,4.84a3.57,3.57,0,0,0,1,2.54,9.82,9.82,0,0,0,2.67,1.92,34.29,34.29,0,0,0,3.84,1.67l4.53,1.67q3,1.12,5.89,2.54a24.48,24.48,0,0,1,5.33,3.53,15.65,15.65,0,0,1,5.39,12.4,18.89,18.89,0,0,1-1.61,7.81,17.18,17.18,0,0,1-4.84,6.26A24.12,24.12,0,0,1,997,182.5,35,35,0,0,1,986.13,184.05Z"/><path class="cls-6" d="M1050.48,184.05a34.26,34.26,0,0,1-12.28-2.17,28.25,28.25,0,0,1-9.92-6.32,28.89,28.89,0,0,1-6.57-10.11,36.83,36.83,0,0,1-2.36-13.64,35,35,0,0,1,2.48-13.45,31.82,31.82,0,0,1,6.51-10.17,28.28,28.28,0,0,1,9.24-6.39,27.11,27.11,0,0,1,10.79-2.23,27.44,27.44,0,0,1,11.47,2.23A22.65,22.65,0,0,1,1068,128a26.32,26.32,0,0,1,4.9,9.36,40.82,40.82,0,0,1,1.61,11.72,43,43,0,0,1-.25,4.71q-0.25,2.23-.5,3.35H1037q1.24,6.7,5.52,9.86a17.14,17.14,0,0,0,10.48,3.16,25.31,25.31,0,0,0,13.27-4.09l6.08,11a40.38,40.38,0,0,1-10.48,5.08A36.81,36.81,0,0,1,1050.48,184.05Zm-13.64-38.94H1059a14,14,0,0,0-2.36-8.43q-2.36-3.22-7.94-3.22a11.28,11.28,0,0,0-7.63,2.85Q1037.83,139.17,1036.84,145.12Z"/><path class="cls-6" d="M1109.63,184.05a24.56,24.56,0,0,1-9.73-1.74,17,17,0,0,1-6.57-4.84,19.65,19.65,0,0,1-3.72-7.5,37.58,37.58,0,0,1-1.18-9.73V135.32H1080V121.8l9.42-.74,2.11-16.37h15.13v16.37h14.76v14.26h-14.76V160q0,5.21,2.17,7.5a7.55,7.55,0,0,0,5.77,2.29,13,13,0,0,0,3-.37,20.29,20.29,0,0,0,2.79-.87l2.85,13.27q-2.48.74-5.83,1.49A36.31,36.31,0,0,1,1109.63,184.05Z"/><path class="cls-6" d="M1159.72,182.56V101.72h20l13,36q1.24,3.6,2.36,7.38t2.36,7.5h0.5q1.24-3.72,2.29-7.5t2.29-7.38l12.77-36h19.84v80.85H1218.5V152.93q0-3,.25-6.57t0.62-7.25q0.37-3.66.74-7.19t0.74-6.51h-0.5l-6.57,19.22-11.53,30.88h-10l-11.53-30.88-6.45-19.22h-0.5q0.37,3,.74,6.51t0.74,7.19q0.37,3.66.62,7.25t0.25,6.57v29.64h-16.37Z"/><path class="cls-6" d="M1268.22,184.05a19.6,19.6,0,0,1-7.63-1.43,16.28,16.28,0,0,1-5.77-4,18.35,18.35,0,0,1-3.66-5.89,20,20,0,0,1-1.3-7.32,17.22,17.22,0,0,1,8.18-15.13q8.18-5.46,26.41-7.32a10.38,10.38,0,0,0-2.42-6.51q-2.17-2.42-7.25-2.42a22,22,0,0,0-7.87,1.49,57.36,57.36,0,0,0-8.37,4.09l-6.57-12a64.42,64.42,0,0,1,12.46-5.83,42.32,42.32,0,0,1,13.83-2.23q11.9,0,18.17,6.76t6.26,21v35.22h-14.88l-1.24-6.32h-0.5a39.32,39.32,0,0,1-8.31,5.64A21.07,21.07,0,0,1,1268.22,184.05Zm6.2-14.14a10,10,0,0,0,5.33-1.36,26,26,0,0,0,4.71-3.84V153.92q-9.67,1.37-13.39,4t-3.72,6.2a5.11,5.11,0,0,0,1.92,4.4A8.43,8.43,0,0,0,1274.42,169.92Z"/><path class="cls-6" d="M1318.07,182.56v-61.5h14.88l1.24,7.81h0.5a49.53,49.53,0,0,1,8.68-6.51,21.26,21.26,0,0,1,11-2.79q10,0,14.57,6.57t4.53,18.23v38.19h-18.23V146.73q0-6.7-1.8-9.18t-5.77-2.48a11,11,0,0,0-6,1.55,35,35,0,0,0-5.46,4.4v41.54h-18.23Z"/><path class="cls-6" d="M1404.5,184.05a19.6,19.6,0,0,1-7.63-1.43,16.28,16.28,0,0,1-5.77-4,18.35,18.35,0,0,1-3.66-5.89,20,20,0,0,1-1.3-7.32,17.22,17.22,0,0,1,8.18-15.13q8.18-5.46,26.41-7.32a10.38,10.38,0,0,0-2.42-6.51q-2.17-2.42-7.25-2.42a22,22,0,0,0-7.87,1.49,57.36,57.36,0,0,0-8.37,4.09l-6.57-12a64.42,64.42,0,0,1,12.46-5.83,42.32,42.32,0,0,1,13.83-2.23q11.9,0,18.17,6.76t6.26,21v35.22h-14.88l-1.24-6.32h-0.5a39.32,39.32,0,0,1-8.31,5.64A21.07,21.07,0,0,1,1404.5,184.05Zm6.2-14.14a10,10,0,0,0,5.33-1.36,26,26,0,0,0,4.71-3.84V153.92q-9.67,1.37-13.39,4t-3.72,6.2a5.11,5.11,0,0,0,1.92,4.4A8.43,8.43,0,0,0,1410.7,169.92Z"/><path class="cls-6" d="M1476.29,208.73a51.61,51.61,0,0,1-10.11-.93A30.27,30.27,0,0,1,1458,205a14.68,14.68,0,0,1-5.52-4.84,12.44,12.44,0,0,1-2-7.07q0-7.44,8.8-12.4v-0.5a13.73,13.73,0,0,1-4.09-4.09,12.15,12.15,0,0,1,.37-12.71,19,19,0,0,1,5-5.15v-0.5a20.75,20.75,0,0,1-5.77-6.39,18,18,0,0,1-2.54-9.61,21.24,21.24,0,0,1,2.11-9.73,20.59,20.59,0,0,1,5.64-6.94,24,24,0,0,1,8.12-4.15,33.32,33.32,0,0,1,9.55-1.36,27.9,27.9,0,0,1,9.55,1.49h22.44v13.27h-9.8a12.45,12.45,0,0,1,1.43,3.47,17.89,17.89,0,0,1,.56,4.59,21.3,21.3,0,0,1-1.86,9.24,17.56,17.56,0,0,1-5.15,6.45,22.28,22.28,0,0,1-7.69,3.78,34.85,34.85,0,0,1-9.49,1.24,24.16,24.16,0,0,1-7.44-1.24,6.22,6.22,0,0,0-1.74,2,5.83,5.83,0,0,0-.5,2.6,3.69,3.69,0,0,0,2,3.47q2,1.12,7.25,1.12h9.92q11.41,0,17.42,3.66t6,12a16.92,16.92,0,0,1-2.42,8.87,21.62,21.62,0,0,1-6.88,6.94,36.93,36.93,0,0,1-10.79,4.59A55.79,55.79,0,0,1,1476.29,208.73Zm2.85-11.41a21.09,21.09,0,0,0,10.17-2.17q4-2.17,4-5.39a3.77,3.77,0,0,0-2.42-3.84,19.23,19.23,0,0,0-7-1h-6.32q-3.23,0-5.21-.19a23.47,23.47,0,0,1-3.47-.56q-3.35,3-3.35,6.08,0,3.47,3.72,5.27A23,23,0,0,0,1479.14,197.32Zm-1.49-45.26a8,8,0,0,0,6-2.54q2.42-2.54,2.42-7.75,0-4.84-2.42-7.38a8,8,0,0,0-6-2.54,8.06,8.06,0,0,0-6,2.48q-2.42,2.48-2.42,7.44,0,5.21,2.42,7.75A8,8,0,0,0,1477.66,152.06Z"/><path class="cls-6" d="M1545.86,184.05a34.26,34.26,0,0,1-12.28-2.17,28.25,28.25,0,0,1-9.92-6.32,28.89,28.89,0,0,1-6.57-10.11,36.83,36.83,0,0,1-2.36-13.64,35,35,0,0,1,2.48-13.45,31.82,31.82,0,0,1,6.51-10.17,28.28,28.28,0,0,1,9.24-6.39,27.11,27.11,0,0,1,10.79-2.23,27.44,27.44,0,0,1,11.47,2.23,22.65,22.65,0,0,1,8.18,6.2,26.32,26.32,0,0,1,4.9,9.36,40.82,40.82,0,0,1,1.61,11.72,43,43,0,0,1-.25,4.71q-0.25,2.23-.5,3.35h-36.83q1.24,6.7,5.52,9.86a17.14,17.14,0,0,0,10.48,3.16,25.31,25.31,0,0,0,13.27-4.09l6.08,11a40.38,40.38,0,0,1-10.48,5.08A36.81,36.81,0,0,1,1545.86,184.05Zm-13.64-38.94h22.2a14,14,0,0,0-2.36-8.43q-2.36-3.22-7.94-3.22a11.28,11.28,0,0,0-7.63,2.85Q1533.21,139.17,1532.22,145.12Z"/><path class="cls-6" d="M1582.56,182.56v-61.5h14.88l1.24,7.94h0.5a49.23,49.23,0,0,1,8.18-6.63,18.85,18.85,0,0,1,10.42-2.79q6.57,0,10.6,2.67a18.3,18.3,0,0,1,6.39,7.63,53.94,53.94,0,0,1,8.62-7.25,18.79,18.79,0,0,1,10.73-3q9.92,0,14.57,6.63t4.65,18.17v38.19H1655.1V146.73q0-6.7-1.8-9.18t-5.77-2.48q-4.59,0-10.54,6v41.54h-18.23V146.73q0-6.7-1.8-9.18t-5.77-2.48q-4.71,0-10.42,6v41.54h-18.23Z"/><path class="cls-6" d="M1716.35,184.05a34.26,34.26,0,0,1-12.28-2.17,28.25,28.25,0,0,1-9.92-6.32,28.89,28.89,0,0,1-6.57-10.11,36.83,36.83,0,0,1-2.36-13.64,35,35,0,0,1,2.48-13.45,31.82,31.82,0,0,1,6.51-10.17,28.28,28.28,0,0,1,9.24-6.39,27.11,27.11,0,0,1,10.79-2.23,27.44,27.44,0,0,1,11.47,2.23,22.65,22.65,0,0,1,8.18,6.2,26.32,26.32,0,0,1,4.9,9.36,40.82,40.82,0,0,1,1.61,11.72,43,43,0,0,1-.25,4.71q-0.25,2.23-.5,3.35h-36.83q1.24,6.7,5.52,9.86a17.14,17.14,0,0,0,10.48,3.16,25.31,25.31,0,0,0,13.27-4.09l6.08,11a40.38,40.38,0,0,1-10.48,5.08A36.81,36.81,0,0,1,1716.35,184.05Zm-13.64-38.94h22.2a14,14,0,0,0-2.36-8.43q-2.36-3.22-7.94-3.22a11.28,11.28,0,0,0-7.63,2.85Q1703.71,139.17,1702.71,145.12Z"/><path class="cls-6" d="M1753.06,182.56v-61.5h14.88l1.24,7.81h0.5a49.53,49.53,0,0,1,8.68-6.51,21.26,21.26,0,0,1,11-2.79q10,0,14.57,6.57t4.53,18.23v38.19h-18.23V146.73q0-6.7-1.8-9.18t-5.77-2.48a11,11,0,0,0-6,1.55,35,35,0,0,0-5.46,4.4v41.54h-18.23Z"/><path class="cls-6" d="M1847.67,184.05a24.56,24.56,0,0,1-9.73-1.74,17,17,0,0,1-6.57-4.84,19.65,19.65,0,0,1-3.72-7.5,37.58,37.58,0,0,1-1.18-9.73V135.32H1818V121.8l9.42-.74,2.11-16.37h15.13v16.37h14.76v14.26h-14.76V160q0,5.21,2.17,7.5a7.55,7.55,0,0,0,5.77,2.29,13,13,0,0,0,3-.37,20.29,20.29,0,0,0,2.79-.87l2.85,13.27q-2.48.74-5.83,1.49A36.31,36.31,0,0,1,1847.67,184.05Z"/></svg>