<?xml version="1.0" encoding="UTF-8"?>
<svg width="1444px" height="177px" viewBox="0 0 1444 177" version="1.1" xmlns="http://www.w3.org/2000/svg" xmlns:xlink="http://www.w3.org/1999/xlink">
    <!-- Generator: Sketch 57.1 (83088) - https://sketch.com -->
    <title>bricks_byggefond</title>
    <desc>Created with Sketch.</desc>
    <defs>
        <circle id="path-1" cx="62.5" cy="62.5" r="62.5"></circle>
    </defs>
    <g id="bricks_byggefond" stroke="none" stroke-width="1" fill="none" fill-rule="evenodd">
        <g id="icon">
            <g transform="translate(88.500000, 88.500000) rotate(-45.000000) translate(-88.500000, -88.500000) translate(26.000000, 26.000000)">
                <mask id="mask-2" fill="white">
                    <use xlink:href="#path-1"></use>
                </mask>
                <g id="Oval"></g>
                <g id="Blue-brick" mask="url(#mask-2)" fill="#304060">
                    <g transform="translate(52.928932, 31.000000)" id="Rectangle">
                        <rect x="0" y="0" width="50" height="30" rx="3"></rect>
                    </g>
                </g>
                <g id="Blue-brick" mask="url(#mask-2)" fill="#304060">
                    <g transform="translate(35.000000, -4.000000)" id="Rectangle">
                        <rect x="0" y="0" width="50" height="30" rx="3"></rect>
                    </g>
                </g>
                <g id="Blue-brick" mask="url(#mask-2)" fill="#304060">
                    <g transform="translate(90.000000, -4.000000)" id="Rectangle">
                        <rect x="0" y="0" width="50" height="30" rx="3"></rect>
                    </g>
                </g>
                <g id="Blue-brick" mask="url(#mask-2)" fill="#304060">
                    <g transform="translate(107.928932, 31.000000)" id="Rectangle">
                        <rect x="0" y="0" width="50" height="30" rx="3"></rect>
                    </g>
                </g>
                <g id="Blue-brick" mask="url(#mask-2)" fill="#304060">
                    <g transform="translate(90.000000, 66.000000)" id="Rectangle">
                        <rect x="0" y="0" width="50" height="30" rx="3"></rect>
                    </g>
                </g>
                <g id="Blue-brick" mask="url(#mask-2)" fill="#304060">
                    <g transform="translate(62.000000, 101.000000)" id="Rectangle">
                        <rect x="0" y="0" width="50" height="30" rx="3"></rect>
                    </g>
                </g>
                <g id="Creditcard" mask="url(#mask-2)">
                    <g transform="translate(-2.071068, 31.000000)">
                        <g>
                            <rect id="Rectangle" fill="#60AAFB" x="0" y="0" width="50" height="30" rx="3"></rect>
                            <rect id="Rectangle-2" fill="#356597" x="0" y="4" width="50" height="5"></rect>
                            <rect id="Rectangle-3" fill="#BCDCFD" x="5" y="15" width="14" height="7"></rect>
                            <rect id="Rectangle-3" fill="#BCDCFD" x="25" y="15" width="18" height="3"></rect>
                            <rect id="Rectangle-3" fill="#BCDCFD" x="25" y="19" width="9" height="3"></rect>
                        </g>
                    </g>
                </g>
                <g id="Creditcard" mask="url(#mask-2)">
                    <g transform="translate(-20.000000, -4.000000)">
                        <g>
                            <rect id="Rectangle" fill="#60AAFB" x="0" y="0" width="50" height="30" rx="3"></rect>
                            <rect id="Rectangle-2" fill="#356597" x="0" y="4" width="50" height="5"></rect>
                            <rect id="Rectangle-3" fill="#BCDCFD" x="5" y="15" width="14" height="7"></rect>
                            <rect id="Rectangle-3" fill="#BCDCFD" x="25" y="15" width="18" height="3"></rect>
                            <rect id="Rectangle-3" fill="#BCDCFD" x="25" y="19" width="9" height="3"></rect>
                        </g>
                    </g>
                </g>
                <g id="Creditcard" mask="url(#mask-2)">
                    <g transform="translate(-20.000000, 66.000000)">
                        <g>
                            <rect id="Rectangle" fill="#60AAFB" x="0" y="0" width="50" height="30" rx="3"></rect>
                            <rect id="Rectangle-2" fill="#356597" x="0" y="4" width="50" height="5"></rect>
                            <rect id="Rectangle-3" fill="#BCDCFD" x="5" y="15" width="14" height="7"></rect>
                            <rect id="Rectangle-3" fill="#BCDCFD" x="25" y="15" width="18" height="3"></rect>
                            <rect id="Rectangle-3" fill="#BCDCFD" x="25" y="19" width="9" height="3"></rect>
                        </g>
                    </g>
                </g>
                <g id="Creditcard" mask="url(#mask-2)">
                    <g transform="translate(35.000000, 66.000000)">
                        <g>
                            <rect id="Rectangle" fill="#60AAFB" x="0" y="0" width="50" height="30" rx="3"></rect>
                            <rect id="Rectangle-2" fill="#356597" x="0" y="4" width="50" height="5"></rect>
                            <rect id="Rectangle-3" fill="#BCDCFD" x="5" y="15" width="14" height="7"></rect>
                            <rect id="Rectangle-3" fill="#BCDCFD" x="25" y="15" width="18" height="3"></rect>
                            <rect id="Rectangle-3" fill="#BCDCFD" x="25" y="19" width="9" height="3"></rect>
                        </g>
                    </g>
                </g>
                <g id="Creditcard" mask="url(#mask-2)">
                    <g transform="translate(7.000000, 101.000000)">
                        <g>
                            <rect id="Rectangle" fill="#60AAFB" x="0" y="0" width="50" height="30" rx="3"></rect>
                            <rect id="Rectangle-2" fill="#356597" x="0" y="4" width="50" height="5"></rect>
                            <rect id="Rectangle-3" fill="#BCDCFD" x="5" y="15" width="14" height="7"></rect>
                            <rect id="Rectangle-3" fill="#BCDCFD" x="25" y="15" width="18" height="3"></rect>
                            <rect id="Rectangle-3" fill="#BCDCFD" x="25" y="19" width="9" height="3"></rect>
                        </g>
                    </g>
                </g>
            </g>
        </g>
        <path d="M194,120.335536 L194,40.3924759 L217.618966,40.3924759 C226.18775,40.3924759 232.687478,42.1585995 237.118345,45.6908998 C241.549212,49.2232002 243.764612,54.4300622 243.764612,61.3116421 C243.764612,65.4479109 242.638603,69.0442145 240.386551,72.1006609 C238.134498,75.1571073 235.049416,77.3441724 231.131212,78.6619217 C235.781791,79.6868379 239.526,81.9745628 242.363952,85.5251652 C245.201904,89.0757676 246.620859,93.1753708 246.620859,97.8240976 C246.620859,104.888698 244.341377,110.406691 239.782344,114.378241 C235.223312,118.349791 228.879211,120.335536 220.749852,120.335536 L194,120.335536 Z M200.756123,81.9013726 L200.756123,114.625318 L221.024491,114.625318 C226.810251,114.625318 231.396679,113.152023 234.783912,110.205389 C238.171145,107.258755 239.864736,103.168303 239.864736,97.9339095 C239.864736,92.9923495 238.244381,89.0849152 235.003623,86.2114896 C231.762865,83.3380639 227.286292,81.9013726 221.57377,81.9013726 L200.756123,81.9013726 Z M200.756123,76.24606 L219.211873,76.24606 C224.851158,76.1362475 229.217877,74.8093671 232.31216,72.2653787 C235.406443,69.7213904 236.953561,66.015276 236.953561,61.1469243 C236.953561,56.0223435 235.351516,52.2430218 232.147376,49.808846 C228.943237,47.3746701 224.100482,46.1576004 217.618966,46.1576004 L200.756123,46.1576004 L200.756123,76.24606 Z M285.735576,66.5277072 C284.344064,66.2714781 282.861027,66.1433655 281.286422,66.1433655 C277.185123,66.1433655 273.71555,67.287228 270.877598,69.5749873 C268.039646,71.8627466 266.016492,75.1845232 264.808073,79.5404169 L264.808073,120.335536 L258.271662,120.335536 L258.271662,60.9273005 L264.698218,60.9273005 L264.808073,70.3711235 C268.286853,63.343127 273.871126,59.8291815 281.561061,59.8291815 C283.391997,59.8291815 284.838416,60.0671049 285.900359,60.5429588 L285.735576,66.5277072 Z M300.352481,120.335536 L293.761142,120.335536 L293.761142,60.9273005 L300.352481,60.9273005 L300.352481,120.335536 Z M292.607657,43.7417387 C292.607657,42.4971976 293.010457,41.4448442 293.81607,40.5846467 C294.621682,39.7244492 295.720227,39.2943569 297.111739,39.2943569 C298.503251,39.2943569 299.610951,39.7244492 300.434873,40.5846467 C301.258794,41.4448442 301.670749,42.4971976 301.670749,43.7417387 C301.670749,44.9862797 301.258794,46.0294823 300.434873,46.8713777 C299.610951,47.7132731 298.503251,48.1342145 297.111739,48.1342145 C295.720227,48.1342145 294.621682,47.7132731 293.81607,46.8713777 C293.010457,46.0294823 292.607657,44.9862797 292.607657,43.7417387 Z M337.050373,115.888155 C341.627715,115.888155 345.46347,114.597878 348.557753,112.017285 C351.652036,109.436693 353.327318,106.096614 353.583649,101.99695 L359.90035,101.99695 C359.717256,105.62076 358.582092,108.924235 356.494824,111.907473 C354.407556,114.890711 351.633729,117.224191 348.173258,118.907982 C344.712788,120.591773 341.005197,121.433655 337.050373,121.433655 C329.250583,121.433655 323.071264,118.724989 318.512231,113.307575 C313.953199,107.890161 311.673717,100.606045 311.673717,91.4550076 L311.673717,89.4783935 C311.673717,83.6217297 312.699026,78.4423204 314.749675,73.9400102 C316.800324,69.4376999 319.738934,65.960358 323.565592,63.50788 C327.392249,61.0554021 331.868823,59.8291815 336.995445,59.8291815 C343.51358,59.8291815 348.887299,61.7691723 353.116763,65.649212 C357.346227,69.5292517 359.6074,74.6354538 359.90035,80.9679715 L353.583649,80.9679715 C353.2907,76.3192447 351.615418,72.5673757 348.557753,69.7122522 C345.500089,66.8571286 341.646025,65.4295882 336.995445,65.4295882 C331.06321,65.4295882 326.458474,67.5708988 323.181097,71.8535841 C319.90372,76.1362695 318.265056,82.1392598 318.265056,89.8627351 L318.265056,91.7844433 C318.265056,99.361502 319.90372,105.272983 323.181097,109.519065 C326.458474,113.765146 331.08152,115.888155 337.050373,115.888155 Z M384.019769,90.4117946 L376.494657,97.6593798 L376.494657,120.335536 L369.903318,120.335536 L369.903318,36 L376.494657,36 L376.494657,89.972547 L382.701501,83.2740214 L405.441622,60.9273005 L413.735724,60.9273005 L388.523851,85.9644128 L415.932837,120.335536 L408.078158,120.335536 L384.019769,90.4117946 Z M457.464378,105.236401 C457.464378,101.978631 456.155278,99.361474 453.537039,97.38485 C450.918799,95.408226 446.97319,93.8617239 441.700092,92.7452974 C436.426994,91.6288709 432.334912,90.3477449 429.423722,88.901881 C426.512533,87.4560172 424.35206,85.6898935 422.942239,83.603457 C421.532417,81.5170206 420.827517,78.9913722 420.827517,76.0264362 C420.827517,71.3411052 422.78659,67.4702746 426.704795,64.4138282 C430.622999,61.3573818 435.639691,59.8291815 441.75502,59.8291815 C448.383011,59.8291815 453.701802,61.4671926 457.711554,64.7432639 C461.721305,68.0193351 463.726151,72.2928054 463.726151,77.5638027 L457.134811,77.5638027 C457.134811,74.0864086 455.679238,71.1947243 452.768049,68.8886629 C449.85686,66.5826016 446.185886,65.4295882 441.75502,65.4295882 C437.434009,65.4295882 433.964436,66.3904327 431.346196,68.3121505 C428.727957,70.2338683 427.418857,72.7320639 427.418857,75.8068124 C427.418857,78.7717484 428.508248,81.0686243 430.687062,82.6975089 C432.865877,84.3263935 436.83895,85.8179902 442.606401,87.1723437 C448.373852,88.5266972 452.694798,89.9725393 455.569368,91.5099136 C458.443939,93.0472878 460.576948,94.8957696 461.96846,97.0554143 C463.359972,99.2150591 464.055718,101.832216 464.055718,104.906965 C464.055718,109.921733 462.032563,113.929827 457.986193,116.931368 C453.939822,119.932908 448.657649,121.433655 442.139514,121.433655 C435.218573,121.433655 429.606837,119.759041 425.304135,116.409761 C421.001434,113.060481 418.850115,108.823615 418.850115,103.699034 L425.441455,103.699034 C425.697786,107.54247 427.318141,110.534814 430.302567,112.676157 C433.286994,114.817499 437.232604,115.888155 442.139514,115.888155 C446.716856,115.888155 450.415293,114.881556 453.234936,112.868327 C456.054578,110.855099 457.464378,108.311149 457.464378,105.236401 Z M544.647047,97.9339095 L508.339753,97.9339095 L500.100579,120.335536 L493.014889,120.335536 L523.280123,40.3924759 L529.706678,40.3924759 L559.971911,120.335536 L552.941149,120.335536 L544.647047,97.9339095 Z M510.427011,92.168785 L542.504862,92.168785 L526.465937,48.6283681 L510.427011,92.168785 Z M602.656937,105.236401 C602.656937,101.978631 601.347837,99.361474 598.729597,97.38485 C596.111358,95.408226 592.165748,93.8617239 586.89265,92.7452974 C581.619552,91.6288709 577.52747,90.3477449 574.616281,88.901881 C571.705091,87.4560172 569.544618,85.6898935 568.134797,83.603457 C566.724976,81.5170206 566.020076,78.9913722 566.020076,76.0264362 C566.020076,71.3411052 567.979149,67.4702746 571.897353,64.4138282 C575.815558,61.3573818 580.832249,59.8291815 586.947578,59.8291815 C593.575569,59.8291815 598.894361,61.4671926 602.904112,64.7432639 C606.913864,68.0193351 608.918709,72.2928054 608.918709,77.5638027 L602.32737,77.5638027 C602.32737,74.0864086 600.871797,71.1947243 597.960608,68.8886629 C595.049418,66.5826016 591.378445,65.4295882 586.947578,65.4295882 C582.626567,65.4295882 579.156994,66.3904327 576.538755,68.3121505 C573.920515,70.2338683 572.611415,72.7320639 572.611415,75.8068124 C572.611415,78.7717484 573.700806,81.0686243 575.879621,82.6975089 C578.058436,84.3263935 582.031509,85.8179902 587.798959,87.1723437 C593.56641,88.5266972 597.887356,89.9725393 600.761927,91.5099136 C603.636498,93.0472878 605.769507,94.8957696 607.161019,97.0554143 C608.552531,99.2150591 609.248276,101.832216 609.248276,104.906965 C609.248276,109.921733 607.225121,113.929827 603.178751,116.931368 C599.132381,119.932908 593.850208,121.433655 587.332073,121.433655 C580.411132,121.433655 574.799395,119.759041 570.496694,116.409761 C566.193992,113.060481 564.042674,108.823615 564.042674,103.699034 L570.634013,103.699034 C570.890344,107.54247 572.510699,110.534814 575.495126,112.676157 C578.479553,114.817499 582.425162,115.888155 587.332073,115.888155 C591.909415,115.888155 595.607852,114.881556 598.427494,112.868327 C601.247137,110.855099 602.656937,108.311149 602.656937,105.236401 Z M656.492311,105.236401 C656.492311,101.978631 655.183211,99.361474 652.564972,97.38485 C649.946732,95.408226 646.001123,93.8617239 640.728025,92.7452974 C635.454927,91.6288709 631.362845,90.3477449 628.451655,88.901881 C625.540466,87.4560172 623.379993,85.6898935 621.970172,83.603457 C620.56035,81.5170206 619.85545,78.9913722 619.85545,76.0264362 C619.85545,71.3411052 621.814523,67.4702746 625.732728,64.4138282 C629.650932,61.3573818 634.667624,59.8291815 640.782953,59.8291815 C647.410944,59.8291815 652.729735,61.4671926 656.739487,64.7432639 C660.749238,68.0193351 662.754084,72.2928054 662.754084,77.5638027 L656.162744,77.5638027 C656.162744,74.0864086 654.707172,71.1947243 651.795982,68.8886629 C648.884793,66.5826016 645.21382,65.4295882 640.782953,65.4295882 C636.461942,65.4295882 632.992369,66.3904327 630.374129,68.3121505 C627.75589,70.2338683 626.44679,72.7320639 626.44679,75.8068124 C626.44679,78.7717484 627.536181,81.0686243 629.714995,82.6975089 C631.89381,84.3263935 635.866883,85.8179902 641.634334,87.1723437 C647.401785,88.5266972 651.722731,89.9725393 654.597301,91.5099136 C657.471872,93.0472878 659.604881,94.8957696 660.996393,97.0554143 C662.387905,99.2150591 663.083651,101.832216 663.083651,104.906965 C663.083651,109.921733 661.060496,113.929827 657.014126,116.931368 C652.967756,119.932908 647.685582,121.433655 641.167447,121.433655 C634.246507,121.433655 628.63477,119.759041 624.332068,116.409761 C620.029367,113.060481 617.878048,108.823615 617.878048,103.699034 L624.469388,103.699034 C624.725719,107.54247 626.346074,110.534814 629.330501,112.676157 C632.314927,114.817499 636.260537,115.888155 641.167447,115.888155 C645.744789,115.888155 649.443226,114.881556 652.262869,112.868327 C655.082511,110.855099 656.492311,108.311149 656.492311,105.236401 Z M697.749213,121.433655 C692.695828,121.433655 688.127709,120.189133 684.04472,117.700051 C679.961731,115.210969 676.785104,111.742778 674.514742,107.295374 C672.244381,102.84797 671.109217,97.8607292 671.109217,92.3335028 L671.109217,89.972547 C671.109217,84.2622999 672.216917,79.1194942 674.43235,74.5439756 C676.647784,69.968457 679.732866,66.3721534 683.687689,63.7549568 C687.642513,61.1377602 691.92684,59.8291815 696.540801,59.8291815 C703.754692,59.8291815 709.476283,62.2907736 713.705747,67.2140315 C717.935211,72.1372895 720.049911,78.8632009 720.049911,87.3919675 L720.049911,91.070666 L677.645628,91.070666 L677.645628,92.3335028 C677.645628,99.0686661 679.577238,104.678168 683.440514,109.162176 C687.303791,113.646184 692.164855,115.888155 698.023852,115.888155 C701.539251,115.888155 704.642642,115.247592 707.334119,113.966446 C710.025596,112.685301 712.46986,110.6355 714.666984,107.81698 L718.786571,110.946619 C713.952898,117.938012 706.940516,121.433655 697.749213,121.433655 Z M696.540801,65.4295882 C691.597272,65.4295882 687.431953,67.2414664 684.04472,70.8652771 C680.657487,74.4890878 678.597714,79.3573665 677.86534,85.4702593 L713.5135,85.4702593 L713.5135,84.756482 C713.330406,79.0462348 711.700897,74.3975777 708.624923,70.8103711 C705.548949,67.2231646 701.520949,65.4295882 696.540801,65.4295882 Z M739.939888,45.7183528 L739.939888,60.9273005 L752.243722,60.9273005 L752.243722,66.3080834 L739.939888,66.3080834 L739.939888,105.895272 C739.939888,109.189645 740.534934,111.642087 741.725043,113.252669 C742.915152,114.863252 744.901688,115.668531 747.684712,115.668531 C748.783274,115.668531 750.559256,115.485513 753.012711,115.119471 L753.28735,120.500254 C751.56627,121.122525 749.222706,121.433655 746.256588,121.433655 C741.752484,121.433655 738.475156,120.125077 736.424507,117.50788 C734.373858,114.890683 733.348549,111.038155 733.348549,105.950178 L733.348549,66.3080834 L722.417911,66.3080834 L722.417911,60.9273005 L733.348549,60.9273005 L733.348549,45.7183528 L739.939888,45.7183528 Z M813.299543,40.3924759 L842.795786,110.946619 L872.401885,40.3924759 L881.410049,40.3924759 L881.410049,120.335536 L874.653926,120.335536 L874.653926,85.5251652 L875.203204,49.8362989 L845.432322,120.335536 L840.214178,120.335536 L810.553151,50.1108287 L811.102429,85.3055414 L811.102429,120.335536 L804.346307,120.335536 L804.346307,40.3924759 L813.299543,40.3924759 Z M934.531362,120.335536 C933.872224,118.468725 933.451115,115.705153 933.268022,112.044738 C930.961041,115.046278 928.022432,117.361456 924.452105,118.990341 C920.881779,120.619225 917.100951,121.433655 913.109509,121.433655 C907.396986,121.433655 902.77394,119.841399 899.240232,116.656838 C895.706524,113.472277 893.939697,109.445881 893.939697,104.577529 C893.939697,98.7940738 896.347343,94.2186239 901.162706,90.8510422 C905.97807,87.4834605 912.688353,85.799695 921.293755,85.799695 L933.213094,85.799695 L933.213094,79.0462633 C933.213094,74.8001821 931.903994,71.4601037 929.285754,69.0259278 C926.667515,66.5917519 922.850069,65.3746823 917.833302,65.3746823 C913.25596,65.3746823 909.465978,66.5459974 906.463242,68.8886629 C903.460505,71.2313284 901.95916,74.0498056 901.95916,77.344179 L895.367821,77.289273 C895.367821,72.5673379 897.564912,68.4768856 901.95916,65.0177936 C906.353408,61.5587016 911.75459,59.8291815 918.162869,59.8291815 C924.79086,59.8291815 930.018106,61.4854944 933.844764,64.7981698 C937.671422,68.1108452 939.639649,72.7320497 939.749505,78.6619217 L939.749505,106.773767 C939.749505,112.520618 940.353705,116.821541 941.562124,119.676665 L941.562124,120.335536 L934.531362,120.335536 Z M913.878498,115.613625 C918.272747,115.613625 922.200047,114.55212 925.660518,112.42908 C929.120988,110.306039 931.638488,107.46926 933.213094,103.918658 L933.213094,90.8510422 L921.458539,90.8510422 C914.903785,90.9242505 909.777239,92.1230184 906.078747,94.4473818 C902.380255,96.7717452 900.531036,99.9654093 900.531036,104.02847 C900.531036,107.359447 901.7669,110.123019 904.238665,112.319268 C906.710429,114.515517 909.923675,115.613625 913.878498,115.613625 Z M960.408472,60.9273005 L960.628183,71.0849009 C962.861926,67.424486 965.644908,64.6334616 968.977213,62.7117438 C972.309518,60.790026 975.989646,59.8291815 980.017706,59.8291815 C986.389366,59.8291815 991.131421,61.6227579 994.244014,65.2099644 C997.356606,68.797171 998.931188,74.1779001 998.967807,81.3523132 L998.967807,120.335536 L992.431395,120.335536 L992.431395,81.2974072 C992.394777,75.9898057 991.268768,72.036617 989.053334,69.4377224 C986.837901,66.8388279 983.295091,65.5394001 978.424799,65.5394001 C974.36012,65.5394001 970.762383,66.8113752 967.631481,69.3553635 C964.500579,71.8993518 962.184479,75.3309393 960.683111,79.6502288 L960.683111,120.335536 L954.1467,120.335536 L954.1467,60.9273005 L960.408472,60.9273005 Z M1050.33143,120.335536 C1049.67229,118.468725 1049.25118,115.705153 1049.06809,112.044738 C1046.76111,115.046278 1043.8225,117.361456 1040.25217,118.990341 C1036.68185,120.619225 1032.90102,121.433655 1028.90958,121.433655 C1023.19705,121.433655 1018.57401,119.841399 1015.0403,116.656838 C1011.50659,113.472277 1009.73976,109.445881 1009.73976,104.577529 C1009.73976,98.7940738 1012.14741,94.2186239 1016.96277,90.8510422 C1021.77814,87.4834605 1028.48842,85.799695 1037.09382,85.799695 L1049.01316,85.799695 L1049.01316,79.0462633 C1049.01316,74.8001821 1047.70406,71.4601037 1045.08582,69.0259278 C1042.46758,66.5917519 1038.65014,65.3746823 1033.63337,65.3746823 C1029.05603,65.3746823 1025.26605,66.5459974 1022.26331,68.8886629 C1019.26057,71.2313284 1017.75923,74.0498056 1017.75923,77.344179 L1011.16789,77.289273 C1011.16789,72.5673379 1013.36498,68.4768856 1017.75923,65.0177936 C1022.15348,61.5587016 1027.55466,59.8291815 1033.96294,59.8291815 C1040.59093,59.8291815 1045.81817,61.4854944 1049.64483,64.7981698 C1053.47149,68.1108452 1055.43972,72.7320497 1055.54957,78.6619217 L1055.54957,106.773767 C1055.54957,112.520618 1056.15377,116.821541 1057.36219,119.676665 L1057.36219,120.335536 L1050.33143,120.335536 Z M1029.67857,115.613625 C1034.07281,115.613625 1038.00011,114.55212 1041.46059,112.42908 C1044.92106,110.306039 1047.43856,107.46926 1049.01316,103.918658 L1049.01316,90.8510422 L1037.25861,90.8510422 C1030.70385,90.9242505 1025.57731,92.1230184 1021.87881,94.4473818 C1018.18032,96.7717452 1016.3311,99.9654093 1016.3311,104.02847 C1016.3311,107.359447 1017.56697,110.123019 1020.03873,112.319268 C1022.5105,114.515517 1025.72374,115.613625 1029.67857,115.613625 Z M1067.31023,90.0823589 C1067.31023,80.7849052 1069.37,73.4184308 1073.48961,67.9827148 C1077.60922,62.5469987 1083.20265,59.8291815 1090.27006,59.8291815 C1098.3628,59.8291815 1104.51466,63.0502982 1108.72581,69.4926284 L1109.05538,60.9273005 L1115.2073,60.9273005 L1115.2073,119.127605 C1115.2073,126.777873 1113.06513,132.835768 1108.78074,137.301474 C1104.49635,141.76718 1098.69237,144 1091.36862,144 C1087.2307,144 1083.28509,143.075759 1079.53167,141.22725 C1075.77825,139.37874 1072.82133,136.917148 1070.66083,133.8424 L1074.34099,129.889171 C1078.99157,135.599418 1084.52092,138.454499 1090.9292,138.454499 C1096.42201,138.454499 1100.70634,136.83479 1103.78231,133.595323 C1106.85828,130.355856 1108.45117,125.862764 1108.56103,120.115913 L1108.56103,112.648704 C1104.34988,118.505367 1098.21633,121.433655 1090.16021,121.433655 C1083.27589,121.433655 1077.74654,118.688385 1073.572,113.197763 C1069.39747,107.707141 1067.31023,100.294912 1067.31023,90.9608541 L1067.31023,90.0823589 Z M1073.9565,91.2353838 C1073.9565,98.8124426 1075.47615,104.78798 1078.51551,109.162176 C1081.55486,113.536372 1085.83919,115.723437 1091.36862,115.723437 C1099.46136,115.723437 1105.19211,112.09968 1108.56103,104.852059 L1108.56103,77.2343671 C1107.02304,73.4275356 1104.80764,70.5267004 1101.91476,68.5317743 C1099.02188,66.5368482 1095.54316,65.5394001 1091.47848,65.5394001 C1085.94905,65.5394001 1081.64641,67.7081634 1078.57044,72.045755 C1075.49446,76.3833465 1073.9565,82.7798255 1073.9565,91.2353838 Z M1152.23476,121.433655 C1147.18137,121.433655 1142.61325,120.189133 1138.53026,117.700051 C1134.44727,115.210969 1131.27065,111.742778 1129.00029,107.295374 C1126.72992,102.84797 1125.59476,97.8607292 1125.59476,92.3335028 L1125.59476,89.972547 C1125.59476,84.2622999 1126.70246,79.1194942 1128.91789,74.5439756 C1131.13333,69.968457 1134.21841,66.3721534 1138.17323,63.7549568 C1142.12806,61.1377602 1146.41238,59.8291815 1151.02634,59.8291815 C1158.24023,59.8291815 1163.96183,62.2907736 1168.19129,67.2140315 C1172.42075,72.1372895 1174.53545,78.8632009 1174.53545,87.3919675 L1174.53545,91.070666 L1132.13117,91.070666 L1132.13117,92.3335028 C1132.13117,99.0686661 1134.06278,104.678168 1137.92606,109.162176 C1141.78933,113.646184 1146.6504,115.888155 1152.5094,115.888155 C1156.02479,115.888155 1159.12819,115.247592 1161.81966,113.966446 C1164.51114,112.685301 1166.9554,110.6355 1169.15253,107.81698 L1173.27211,110.946619 C1168.43844,117.938012 1161.42606,121.433655 1152.23476,121.433655 Z M1151.02634,65.4295882 C1146.08281,65.4295882 1141.9175,67.2414664 1138.53026,70.8652771 C1135.14303,74.4890878 1133.08326,79.3573665 1132.35088,85.4702593 L1167.99904,85.4702593 L1167.99904,84.756482 C1167.81595,79.0462348 1166.18644,74.3975777 1163.11047,70.8103711 C1160.03449,67.2231646 1156.00649,65.4295882 1151.02634,65.4295882 Z M1190.19599,60.9273005 L1190.4157,70.5907473 C1192.61282,67.0035408 1195.35919,64.3131762 1198.65487,62.519573 C1201.95056,60.7259697 1205.61238,59.8291815 1209.64044,59.8291815 C1219.01484,59.8291815 1224.96529,63.6725594 1227.49198,71.3594306 C1229.61587,67.6624116 1232.45378,64.8164818 1236.0058,62.8215557 C1239.55781,60.8266296 1243.47596,59.8291815 1247.76035,59.8291815 C1260.50367,59.8291815 1267.0034,66.7838654 1267.25973,80.6934418 L1267.25973,120.335536 L1260.66839,120.335536 L1260.66839,81.1875953 C1260.63177,75.8799938 1259.48745,71.9451069 1257.2354,69.3828165 C1254.98335,66.8205261 1251.31238,65.5394001 1246.22237,65.5394001 C1241.49856,65.6126084 1237.50717,67.1408087 1234.24811,70.1240468 C1230.98904,73.1072849 1229.17644,76.7401921 1228.81025,81.0228775 L1228.81025,120.335536 L1222.21891,120.335536 L1222.21891,80.6934418 C1222.18229,75.6054652 1220.98305,71.8078417 1218.62114,69.3004575 C1216.25923,66.7930734 1212.62488,65.5394001 1207.71797,65.5394001 C1203.58005,65.5394001 1200.02808,66.7198662 1197.06197,69.0808338 C1194.09585,71.4418013 1191.89876,74.946596 1190.47063,79.5953228 L1190.47063,120.335536 L1183.87929,120.335536 L1183.87929,60.9273005 L1190.19599,60.9273005 Z M1303.79284,121.433655 C1298.73945,121.433655 1294.17134,120.189133 1290.08835,117.700051 C1286.00536,115.210969 1282.82873,111.742778 1280.55837,107.295374 C1278.28801,102.84797 1277.15284,97.8607292 1277.15284,92.3335028 L1277.15284,89.972547 C1277.15284,84.2622999 1278.26054,79.1194942 1280.47598,74.5439756 C1282.69141,69.968457 1285.77649,66.3721534 1289.73132,63.7549568 C1293.68614,61.1377602 1297.97047,59.8291815 1302.58443,59.8291815 C1309.79832,59.8291815 1315.51991,62.2907736 1319.74937,67.2140315 C1323.97884,72.1372895 1326.09354,78.8632009 1326.09354,87.3919675 L1326.09354,91.070666 L1283.68925,91.070666 L1283.68925,92.3335028 C1283.68925,99.0686661 1285.62086,104.678168 1289.48414,109.162176 C1293.34742,113.646184 1298.20848,115.888155 1304.06748,115.888155 C1307.58288,115.888155 1310.68627,115.247592 1313.37775,113.966446 C1316.06922,112.685301 1318.51349,110.6355 1320.71061,107.81698 L1324.8302,110.946619 C1319.99652,117.938012 1312.98414,121.433655 1303.79284,121.433655 Z M1302.58443,65.4295882 C1297.6409,65.4295882 1293.47558,67.2414664 1290.08835,70.8652771 C1286.70111,74.4890878 1284.64134,79.3573665 1283.90897,85.4702593 L1319.55713,85.4702593 L1319.55713,84.756482 C1319.37403,79.0462348 1317.74452,74.3975777 1314.66855,70.8103711 C1311.59258,67.2231646 1307.56458,65.4295882 1302.58443,65.4295882 Z M1342.02871,60.9273005 L1342.24842,71.0849009 C1344.48217,67.424486 1347.26515,64.6334616 1350.59745,62.7117438 C1353.92976,60.790026 1357.60988,59.8291815 1361.63795,59.8291815 C1368.00961,59.8291815 1372.75166,61.6227579 1375.86425,65.2099644 C1378.97685,68.797171 1380.55143,74.1779001 1380.58805,81.3523132 L1380.58805,120.335536 L1374.05163,120.335536 L1374.05163,81.2974072 C1374.01502,75.9898057 1372.88901,72.036617 1370.67357,69.4377224 C1368.45814,66.8388279 1364.91533,65.5394001 1360.04504,65.5394001 C1355.98036,65.5394001 1352.38262,66.8113752 1349.25172,69.3553635 C1346.12082,71.8993518 1343.80472,75.3309393 1342.30335,79.6502288 L1342.30335,120.335536 L1335.76694,120.335536 L1335.76694,60.9273005 L1342.02871,60.9273005 Z M1404.65254,45.7183528 L1404.65254,60.9273005 L1416.95637,60.9273005 L1416.95637,66.3080834 L1404.65254,66.3080834 L1404.65254,105.895272 C1404.65254,109.189645 1405.24758,111.642087 1406.43769,113.252669 C1407.6278,114.863252 1409.61434,115.668531 1412.39736,115.668531 C1413.49592,115.668531 1415.27191,115.485513 1417.72536,115.119471 L1418,120.500254 C1416.27892,121.122525 1413.93536,121.433655 1410.96924,121.433655 C1406.46513,121.433655 1403.18781,120.125077 1401.13716,117.50788 C1399.08651,114.890683 1398.0612,111.038155 1398.0612,105.950178 L1398.0612,66.3080834 L1387.13056,66.3080834 L1387.13056,60.9273005 L1398.0612,60.9273005 L1398.0612,45.7183528 L1404.65254,45.7183528 Z" id="Bricks-Assets-Manage" fill="#304060"></path>
        <path d="M1230.02118,151.292955 L1221.56799,151.292955 L1219.64972,156.462747 L1218,156.462747 L1225.04646,138.013685 L1226.54271,138.013685 L1233.58918,156.462747 L1231.95225,156.462747 L1230.02118,151.292955 Z M1222.05395,149.962494 L1229.52243,149.962494 L1225.78819,139.914344 L1222.05395,149.962494 Z M1241.23954,156.462747 L1241.23954,138.013685 L1246.73859,138.013685 C1248.7336,138.013685 1250.24689,138.421266 1251.2785,139.236442 C1252.31012,140.051618 1252.82591,141.253244 1252.82591,142.841358 C1252.82591,143.795916 1252.56375,144.625862 1252.03942,145.331221 C1251.51509,146.036581 1250.79681,146.541306 1249.88456,146.845413 C1250.96732,147.081941 1251.83906,147.609896 1252.49981,148.429295 C1253.16055,149.248695 1253.49091,150.194791 1253.49091,151.267613 C1253.49091,152.897964 1252.9602,154.171393 1251.89875,155.087937 C1250.8373,156.004482 1249.36024,156.462747 1247.46753,156.462747 L1241.23954,156.462747 Z M1242.81252,147.593006 L1242.81252,155.144957 L1247.53148,155.144957 C1248.87854,155.144957 1249.94637,154.804954 1250.73499,154.124937 C1251.52362,153.44492 1251.91793,152.500935 1251.91793,151.292955 C1251.91793,150.152554 1251.54067,149.250806 1250.78615,148.587684 C1250.03162,147.924562 1248.98937,147.593006 1247.65936,147.593006 L1242.81252,147.593006 Z M1242.81252,146.287886 L1247.10946,146.287886 C1248.42241,146.262544 1249.43909,145.95633 1250.15951,145.369235 C1250.87993,144.782139 1251.24014,143.926851 1251.24014,142.803345 C1251.24014,141.620707 1250.86715,140.748525 1250.12115,140.186771 C1249.37515,139.625018 1248.24764,139.344146 1246.73859,139.344146 L1242.81252,139.344146 L1242.81252,146.287886 Z M1262.59774,144.045109 C1262.27377,143.985977 1261.92848,143.956412 1261.56188,143.956412 C1260.607,143.956412 1259.7992,144.220389 1259.13846,144.748353 C1258.47771,145.276316 1258.00668,146.042908 1257.72533,147.04815 L1257.72533,156.462747 L1256.2035,156.462747 L1256.2035,142.752661 L1257.69975,142.752661 L1257.72533,144.932083 C1258.53527,143.310179 1259.83542,142.49924 1261.62582,142.49924 C1262.0521,142.49924 1262.38886,142.554147 1262.63611,142.663964 L1262.59774,144.045109 Z M1266.0009,156.462747 L1264.46628,156.462747 L1264.46628,142.752661 L1266.0009,142.752661 L1266.0009,156.462747 Z M1264.19773,138.786619 C1264.19773,138.499407 1264.29151,138.256548 1264.47907,138.058033 C1264.66664,137.859519 1264.92241,137.760264 1265.24638,137.760264 C1265.57036,137.760264 1265.82826,137.859519 1266.02009,138.058033 C1266.21192,138.256548 1266.30783,138.499407 1266.30783,138.786619 C1266.30783,139.073831 1266.21192,139.314579 1266.02009,139.50887 C1265.82826,139.70316 1265.57036,139.800304 1265.24638,139.800304 C1264.92241,139.800304 1264.66664,139.70316 1264.47907,139.50887 C1264.29151,139.314579 1264.19773,139.073831 1264.19773,138.786619 Z M1274.54504,155.436391 C1275.61075,155.436391 1276.50381,155.138624 1277.22423,154.543082 C1277.94465,153.947539 1278.3347,153.176724 1278.39438,152.230613 L1279.86505,152.230613 C1279.82242,153.066907 1279.55813,153.829275 1279.07217,154.517739 C1278.5862,155.206204 1277.94039,155.744718 1277.13471,156.1333 C1276.32903,156.521881 1275.46582,156.716168 1274.54504,156.716168 C1272.72906,156.716168 1271.29037,156.091069 1270.22892,154.840851 C1269.16747,153.590634 1268.63676,151.909624 1268.63676,149.79777 L1268.63676,149.341612 C1268.63676,147.990025 1268.87547,146.794734 1269.35291,145.755702 C1269.83035,144.71667 1270.51453,143.914178 1271.40546,143.348201 C1272.2964,142.782224 1273.33865,142.49924 1274.53225,142.49924 C1276.04983,142.49924 1277.30096,142.946946 1278.28567,143.842372 C1279.27039,144.737798 1279.79685,145.916195 1279.86505,147.377598 L1278.39438,147.377598 C1278.32617,146.304776 1277.93613,145.438929 1277.22423,144.78003 C1276.51233,144.121132 1275.61502,143.791688 1274.53225,143.791688 C1273.15109,143.791688 1272.079,144.285854 1271.31594,145.274202 C1270.55289,146.262549 1270.17137,147.647905 1270.17137,149.430309 L1270.17137,149.873796 C1270.17137,151.622411 1270.55289,152.986648 1271.31594,153.966548 C1272.079,154.946449 1273.15535,155.436391 1274.54504,155.436391 Z M1285.48062,149.55702 L1283.7286,151.2296 L1283.7286,156.462747 L1282.19398,156.462747 L1282.19398,137 L1283.7286,137 L1283.7286,149.455651 L1285.1737,147.909782 L1290.46814,142.752661 L1292.3992,142.752661 L1286.52928,148.530664 L1292.91074,156.462747 L1291.08198,156.462747 L1285.48062,149.55702 Z M1302.58026,152.978206 C1302.58026,152.226386 1302.27547,151.622405 1301.66588,151.166244 C1301.0563,150.710084 1300.13767,150.353186 1298.90996,150.09554 C1297.68226,149.837894 1296.72953,149.542239 1296.05174,149.208566 C1295.37394,148.874893 1294.87093,148.467311 1294.54269,147.985808 C1294.21445,147.504306 1294.05034,146.921443 1294.05034,146.237202 C1294.05034,145.155933 1294.50645,144.262632 1295.4187,143.557273 C1296.33096,142.851914 1297.49896,142.49924 1298.92275,142.49924 C1300.46591,142.49924 1301.70425,142.877256 1302.63781,143.6333 C1303.57137,144.389343 1304.03815,145.375564 1304.03815,146.591992 L1302.50353,146.591992 C1302.50353,145.789487 1302.16464,145.122152 1301.48685,144.589965 C1300.80905,144.057777 1299.95436,143.791688 1298.92275,143.791688 C1297.91672,143.791688 1297.10892,144.013429 1296.49933,144.456918 C1295.88974,144.900408 1295.58496,145.476935 1295.58496,146.186518 C1295.58496,146.870759 1295.83859,147.400826 1296.34587,147.776736 C1296.85315,148.152646 1297.77818,148.496873 1299.12097,148.809427 C1300.46377,149.121982 1301.46979,149.45565 1302.13906,149.810441 C1302.80833,150.165232 1303.30494,150.59182 1303.62892,151.090218 C1303.9529,151.588615 1304.11488,152.192597 1304.11488,152.902179 C1304.11488,154.059475 1303.64384,154.984453 1302.70175,155.677141 C1301.75966,156.369829 1300.52985,156.716168 1299.01227,156.716168 C1297.40091,156.716168 1296.09437,156.329705 1295.0926,155.556766 C1294.09083,154.783828 1293.58995,153.806054 1293.58995,152.623416 L1295.12457,152.623416 C1295.18425,153.510395 1295.56151,154.200961 1296.25635,154.695134 C1296.9512,155.189308 1297.86983,155.436391 1299.01227,155.436391 C1300.07798,155.436391 1300.93907,155.204091 1301.59555,154.739483 C1302.25203,154.274875 1302.58026,153.687789 1302.58026,152.978206 Z M1326.01163,150.710086 C1325.79848,152.652992 1325.09725,154.139714 1323.90792,155.170299 C1322.71858,156.200884 1321.13496,156.716168 1319.15699,156.716168 C1317.77583,156.716168 1316.55454,156.374053 1315.49309,155.689812 C1314.43164,155.005572 1313.61105,154.036246 1313.0313,152.781804 C1312.45156,151.527363 1312.15742,150.093436 1312.1489,148.47998 L1312.1489,146.08515 C1312.1489,144.446351 1312.43877,142.993417 1313.01852,141.726305 C1313.59826,140.459193 1314.43164,139.481419 1315.51867,138.792955 C1316.60569,138.104491 1317.85682,137.760264 1319.27209,137.760264 C1321.2671,137.760264 1322.8422,138.294555 1323.99744,139.363153 C1325.15267,140.431751 1325.82406,141.907914 1326.01163,143.791688 L1324.42585,143.791688 C1324.03367,140.657697 1322.31577,139.090725 1319.27209,139.090725 C1317.584,139.090725 1316.23909,139.715824 1315.23732,140.966042 C1314.23555,142.216259 1313.73467,143.943729 1313.73467,146.148505 L1313.73467,148.403953 C1313.73467,150.532702 1314.22276,152.230607 1315.19895,153.497719 C1316.17515,154.764831 1317.49448,155.398378 1319.15699,155.398378 C1320.80245,155.398378 1322.04293,155.007691 1322.87844,154.226305 C1323.71396,153.444919 1324.22976,152.272858 1324.42585,150.710086 L1326.01163,150.710086 Z M1327.90574,149.404967 C1327.90574,148.08717 1328.16364,146.900326 1328.67945,145.844399 C1329.19525,144.788473 1329.92419,143.966974 1330.86628,143.379878 C1331.80837,142.792783 1332.8762,142.49924 1334.0698,142.49924 C1335.91135,142.49924 1337.40333,143.139122 1338.54577,144.418905 C1339.68822,145.698689 1340.25943,147.394482 1340.25943,149.506336 L1340.25943,149.823112 C1340.25943,151.149356 1340.00153,152.342536 1339.48573,153.402686 C1338.96992,154.462837 1338.24312,155.280112 1337.30529,155.854536 C1336.36746,156.42896 1335.2975,156.716168 1334.09538,156.716168 C1332.26235,156.716168 1330.7725,156.076286 1329.6258,154.796503 C1328.47909,153.516719 1327.90574,151.820926 1327.90574,149.709072 L1327.90574,149.404967 Z M1329.44036,149.823112 C1329.44036,151.461911 1329.86877,152.807141 1330.72561,153.858844 C1331.58244,154.910548 1332.70569,155.436391 1334.09538,155.436391 C1335.47654,155.436391 1336.59552,154.910548 1337.45236,153.858844 C1338.30919,152.807141 1338.7376,151.419674 1338.7376,149.696401 L1338.7376,149.404967 C1338.7376,148.357488 1338.54151,147.39872 1338.14933,146.528637 C1337.75715,145.658553 1337.20725,144.984882 1336.49961,144.507603 C1335.79198,144.030324 1334.98205,143.791688 1334.0698,143.791688 C1332.70569,143.791688 1331.5931,144.321755 1330.732,145.381906 C1329.87091,146.442056 1329.44036,147.829523 1329.44036,149.544349 L1329.44036,149.823112 Z M1344.08461,142.752661 L1344.13576,144.982767 C1344.64731,144.154921 1345.28673,143.534045 1346.05404,143.120122 C1346.82135,142.706198 1347.67391,142.49924 1348.61174,142.49924 C1350.79432,142.49924 1352.17972,143.386205 1352.768,145.160162 C1353.26249,144.306973 1353.92322,143.650197 1354.75022,143.189812 C1355.57721,142.729428 1356.48945,142.49924 1357.48695,142.49924 C1360.4539,142.49924 1361.96719,144.104225 1362.02687,147.314242 L1362.02687,156.462747 L1360.49225,156.462747 L1360.49225,147.428282 C1360.48372,146.203407 1360.2173,145.295323 1359.69297,144.704004 C1359.16864,144.112685 1358.31395,143.81703 1357.12888,143.81703 C1356.02906,143.833925 1355.09977,144.186599 1354.34098,144.875063 C1353.5822,145.563528 1353.16018,146.401921 1353.07492,147.390269 L1353.07492,156.462747 L1351.5403,156.462747 L1351.5403,147.314242 C1351.53178,146.140052 1351.25256,145.263645 1350.70266,144.684997 C1350.15275,144.10635 1349.30659,143.81703 1348.16414,143.81703 C1347.20074,143.81703 1346.37375,144.089455 1345.68317,144.634313 C1344.99259,145.179172 1344.48106,145.987999 1344.14855,147.060821 L1344.14855,156.462747 L1342.61393,156.462747 L1342.61393,142.752661 L1344.08461,142.752661 Z M1376.30025,149.747086 C1376.30025,151.884282 1375.82282,153.580075 1374.86794,154.834516 C1373.91306,156.088957 1372.63422,156.716168 1371.03139,156.716168 C1369.13868,156.716168 1367.68934,156.05728 1366.6833,154.739483 L1366.6833,161.733908 L1365.16147,161.733908 L1365.16147,142.752661 L1366.58099,142.752661 L1366.65772,144.691333 C1367.65523,143.22993 1369.10032,142.49924 1370.99302,142.49924 C1372.64701,142.49924 1373.94503,143.120115 1374.88712,144.361885 C1375.82921,145.603655 1376.30025,147.326902 1376.30025,149.531678 L1376.30025,149.747086 Z M1374.76563,149.480993 C1374.76563,147.732378 1374.40329,146.351247 1373.67861,145.337557 C1372.95392,144.323867 1371.94364,143.81703 1370.64774,143.81703 C1369.70991,143.81703 1368.90424,144.040883 1368.23071,144.488596 C1367.55718,144.936309 1367.04138,145.58675 1366.6833,146.439939 L1366.6833,153.016219 C1367.04991,153.801829 1367.57423,154.401586 1368.25629,154.815509 C1368.93834,155.229433 1369.74401,155.436391 1370.67331,155.436391 C1371.96069,155.436391 1372.96458,154.927442 1373.685,153.909529 C1374.40542,152.891615 1374.76563,151.415451 1374.76563,149.480993 Z M1387.69622,156.462747 C1387.54276,156.031929 1387.44471,155.394159 1387.40208,154.549417 C1386.86496,155.242105 1386.18079,155.776396 1385.34953,156.152306 C1384.51827,156.528216 1383.63801,156.716168 1382.70871,156.716168 C1381.3787,156.716168 1380.30234,156.348711 1379.47961,155.613786 C1378.65688,154.878861 1378.24552,153.949659 1378.24552,152.826153 C1378.24552,151.491461 1378.80608,150.43555 1379.92721,149.658388 C1381.04834,148.881226 1382.61065,148.492651 1384.61419,148.492651 L1387.3893,148.492651 L1387.3893,146.93411 C1387.3893,145.95421 1387.08451,145.183395 1386.47492,144.621642 C1385.86533,144.059889 1384.97654,143.779017 1383.80852,143.779017 C1382.7428,143.779017 1381.86041,144.04933 1381.1613,144.589965 C1380.46219,145.130599 1380.11264,145.78104 1380.11264,146.541308 L1378.57802,146.528637 C1378.57802,145.43892 1379.08956,144.494936 1380.11264,143.696655 C1381.13573,142.898374 1382.39325,142.49924 1383.88525,142.49924 C1385.4284,142.49924 1386.64543,142.88148 1387.53636,143.645971 C1388.4273,144.410462 1388.88555,145.476932 1388.91113,146.845413 L1388.91113,153.332995 C1388.91113,154.65924 1389.0518,155.651796 1389.33315,156.310694 L1389.33315,156.462747 L1387.69622,156.462747 Z M1382.88775,155.373036 C1383.91083,155.373036 1384.8252,155.128065 1385.63088,154.638115 C1386.43656,154.148164 1387.02269,153.4935 1387.3893,152.6741 L1387.3893,149.658388 L1384.65256,149.658388 C1383.12646,149.675283 1381.93288,149.951932 1381.07178,150.488343 C1380.21068,151.024753 1379.78014,151.761779 1379.78014,152.699442 C1379.78014,153.468157 1380.06788,154.105928 1380.64336,154.612772 C1381.21885,155.119617 1381.96697,155.373036 1382.88775,155.373036 Z M1393.72102,142.752661 L1393.77218,145.096807 C1394.29224,144.252065 1394.94019,143.60796 1395.71603,143.16447 C1396.49187,142.720981 1397.34869,142.49924 1398.28651,142.49924 C1399.76999,142.49924 1400.87405,142.913157 1401.59873,143.741004 C1402.32342,144.56885 1402.69002,145.810602 1402.69854,147.466295 L1402.69854,156.462747 L1401.17671,156.462747 L1401.17671,147.453624 C1401.16819,146.228749 1400.90603,145.316442 1400.39022,144.716675 C1399.87442,144.116909 1399.04957,143.81703 1397.91565,143.81703 C1396.96929,143.81703 1396.13166,144.110573 1395.40271,144.697669 C1394.67376,145.284764 1394.13452,146.076697 1393.78496,147.073492 L1393.78496,156.462747 L1392.26313,156.462747 L1392.26313,142.752661 L1393.72102,142.752661 Z M1410.30912,154.283325 L1414.35028,142.752661 L1416,142.752661 L1410.09172,158.794222 L1409.78479,159.503801 C1409.026,161.167942 1407.85374,162 1406.26796,162 C1405.90135,162 1405.50917,161.940869 1405.09141,161.822605 L1405.07863,160.56817 L1405.87151,160.644197 C1406.62177,160.644197 1407.22922,160.460468 1407.69387,160.093006 C1408.15852,159.725543 1408.55283,159.094108 1408.87681,158.198682 L1409.5546,156.348708 L1404.33689,142.752661 L1406.01219,142.752661 L1410.30912,154.283325 Z" id="A-Bricks-Company" fill="#304060"></path>
    </g>
</svg>